<?xml version="1.0" standalone="no"?>
<!DOCTYPE svg PUBLIC "-//W3C//DTD SVG 20010904//EN"
 "http://www.w3.org/TR/2001/REC-SVG-20010904/DTD/svg10.dtd">
<svg version="1.0" xmlns="http://www.w3.org/2000/svg"
 width="885.000000pt" height="885.000000pt" viewBox="0 0 885.000000 885.000000"
 preserveAspectRatio="xMidYMid meet">

<g transform="translate(0.000000,885.000000) scale(0.100000,-0.100000)"
fill="#000000" stroke="none">
<path d="M0 4425 l0 -4425 4425 0 4425 0 0 4425 0 4425 -4425 0 -4425 0 0
-4425z m4525 2460 c568 -43 1085 -403 1341 -934 59 -123 87 -210 130 -403 25
-111 28 -142 28 -323 1 -184 -1 -210 -28 -330 -65 -296 -164 -506 -339 -723
-65 -80 -207 -221 -277 -276 -120 -93 -404 -245 -490 -263 -46 -9 -98 5 -112
30 -9 16 -14 109 -18 332 l-5 310 -28 60 c-16 33 -40 75 -53 93 l-25 32 23 9
c13 4 48 11 79 14 157 18 368 114 471 215 59 57 132 200 153 299 39 189 38
376 -1 498 -17 50 -68 144 -111 201 -20 27 -22 36 -12 60 30 80 21 279 -18
377 l-16 39 -50 -7 c-74 -9 -191 -57 -295 -121 l-91 -55 -108 21 c-202 39
-475 37 -665 -6 l-68 -16 -56 34 c-31 18 -70 42 -88 52 -54 33 -194 84 -249
91 l-54 7 -24 -74 c-28 -85 -33 -237 -10 -325 13 -51 12 -53 -17 -90 -50 -64
-100 -170 -118 -250 -20 -91 -15 -303 11 -423 24 -112 92 -246 156 -309 111
-108 273 -184 460 -217 52 -9 97 -18 102 -21 4 -2 -2 -17 -13 -33 -30 -42 -80
-152 -80 -176 0 -12 -6 -26 -12 -32 -24 -19 -99 -33 -186 -34 -69 -1 -97 3
-135 20 -57 25 -129 91 -162 147 -37 62 -124 142 -174 160 -49 17 -119 20
-141 5 -13 -8 -10 -14 16 -37 18 -16 51 -42 75 -59 27 -19 57 -54 78 -90 19
-32 42 -70 51 -84 9 -14 23 -42 30 -64 7 -21 31 -56 54 -79 98 -95 158 -113
358 -104 l138 6 0 -170 c0 -212 -10 -239 -89 -239 -87 0 -350 135 -537 277
-78 59 -227 209 -295 298 -213 279 -338 635 -342 980 -4 265 49 525 153 751
131 283 399 585 638 715 31 18 73 42 92 55 19 12 71 37 115 54 44 17 89 35
100 39 76 33 212 64 355 80 172 20 191 20 385 6z m-3228 -3670 c28 -8 61 -23
72 -33 l21 -17 -23 -85 -24 -85 -34 3 c-191 14 -252 14 -294 -3 -98 -37 -139
-127 -139 -305 -1 -140 19 -211 72 -265 44 -44 88 -57 172 -53 l65 3 0 95 0
95 -63 1 c-35 1 -66 4 -68 7 -10 10 -12 172 -2 190 8 15 27 17 181 17 121 0
177 -4 185 -12 9 -9 12 -82 12 -265 l0 -254 -25 -24 c-13 -14 -29 -25 -35 -25
-6 0 -32 -10 -58 -22 -66 -31 -271 -38 -358 -13 -166 48 -253 137 -300 306
-25 89 -26 336 -1 429 25 92 58 158 104 210 46 51 149 107 221 120 67 13 257
4 319 -15z m4027 -20 c138 -26 196 -64 241 -159 50 -104 39 -248 -25 -341 -37
-54 -74 -77 -168 -105 -61 -18 -93 -21 -202 -18 l-130 3 -2 -205 -3 -205 -50
0 -50 0 -3 510 c-1 281 0 516 3 523 7 18 291 16 389 -3z m-1130 -1 c14 -5 16
-30 16 -169 l0 -163 47 14 c25 8 80 14 120 14 97 0 156 -25 201 -85 51 -67 65
-122 65 -265 1 -197 -31 -290 -121 -353 -46 -31 -49 -32 -157 -32 -102 0 -114
2 -159 28 -57 32 -56 31 -56 12 0 -22 -33 -35 -90 -35 -98 0 -90 -49 -90 525
0 393 3 504 13 508 18 8 192 8 211 1z m-1564 -189 l0 -185 135 0 135 0 0 185
0 186 118 -3 117 -3 3 -499 c1 -279 -2 -504 -7 -509 -12 -12 -192 -17 -213 -6
-16 9 -18 30 -18 224 l0 215 -135 0 -135 0 -2 -217 -3 -218 -115 0 -115 0 -3
495 c-1 272 0 501 3 508 3 9 37 12 120 12 l115 0 0 -185z m-922 151 c59 -32
79 -116 42 -179 -25 -41 -57 -57 -116 -57 -39 0 -51 5 -79 33 -59 59 -56 139
7 192 33 28 106 34 146 11z m442 -186 l0 -100 80 0 81 0 -3 -92 -3 -93 -77 -3
-78 -3 0 -148 c0 -175 2 -178 95 -183 l60 -3 3 -81 c4 -106 0 -109 -133 -109
-96 0 -104 2 -151 30 -31 20 -58 47 -74 75 -24 43 -25 54 -28 233 l-4 187 -54
0 -54 0 0 80 c0 56 4 82 13 85 6 2 31 9 55 15 l42 11 0 99 0 100 115 0 115 0
0 -100z m-396 -116 c8 -20 8 -632 0 -661 -6 -22 -11 -23 -108 -23 -66 0 -106
4 -114 12 -9 9 -12 99 -12 343 0 183 3 335 7 338 3 4 55 7 114 7 88 0 108 -3
113 -16z m1706 -216 c0 -273 2 -281 70 -286 25 -2 62 1 83 8 l37 11 0 249 0
250 115 0 115 0 0 -345 c0 -391 6 -365 -85 -365 -52 0 -85 14 -85 36 0 11 -12
8 -52 -13 -44 -22 -69 -27 -151 -31 -109 -5 -161 8 -209 53 -62 57 -63 64 -66
378 l-3 287 115 0 116 0 0 -232z m2637 204 c31 -16 48 -35 67 -75 l26 -53 -2
-274 -3 -275 -29 0 c-25 0 -37 10 -52 43 -1 2 -26 -9 -55 -25 -48 -25 -65 -28
-144 -28 -83 0 -94 2 -139 30 -63 39 -83 67 -98 135 -22 108 10 194 89 238 47
26 180 52 266 52 l57 0 0 40 c0 59 -23 96 -67 111 -42 14 -201 7 -247 -11 -16
-6 -35 -9 -43 -6 -17 7 -17 82 -1 93 35 23 102 32 213 30 101 -2 127 -6 162
-25z m750 18 l74 0 -3 -32 c-3 -29 -8 -34 -51 -47 -41 -13 -47 -18 -42 -35 23
-78 28 -139 17 -198 -14 -78 -49 -129 -109 -165 -42 -25 -61 -29 -153 -33
l-105 -5 0 -35 c0 -40 -21 -34 227 -63 96 -12 125 -19 158 -41 52 -34 72 -75
72 -145 0 -73 -14 -107 -65 -159 -62 -63 -144 -87 -302 -86 -185 1 -268 42
-296 147 -23 87 7 172 79 220 41 28 41 29 26 53 -20 30 -14 108 9 132 14 14
12 19 -23 60 -47 52 -60 93 -60 182 0 120 40 197 125 237 48 23 56 24 199 19
82 -3 182 -6 223 -6z m537 -6 c89 -30 133 -124 138 -294 l3 -95 -224 -3 -224
-2 7 -46 c8 -60 40 -116 79 -140 50 -30 219 -23 313 13 11 4 14 -5 14 -41 0
-46 -1 -47 -46 -67 -57 -25 -210 -37 -271 -20 -56 15 -133 69 -157 110 -30 52
-46 136 -46 246 0 181 41 278 139 328 47 23 67 27 141 27 53 0 105 -6 134 -16z
m661 2 c37 -11 40 -15 46 -54 3 -23 1 -46 -3 -50 -5 -5 -32 -3 -61 5 -68 17
-198 17 -242 -1 -27 -11 -36 -23 -45 -54 -22 -82 14 -116 138 -131 46 -6 102
-16 125 -22 125 -34 168 -208 77 -313 -61 -69 -187 -99 -327 -77 -110 17 -123
25 -123 79 0 43 1 44 28 38 15 -3 66 -11 113 -17 98 -12 186 0 212 29 42 46
43 131 3 157 -11 8 -76 25 -143 38 -169 34 -212 69 -214 175 -2 64 7 89 48
139 24 31 47 47 81 57 58 18 231 19 287 2z"/>
<path d="M5040 2886 l0 -216 114 0 c141 0 207 12 252 46 55 43 69 77 69 175 0
74 -3 90 -24 120 -13 19 -40 46 -60 60 -34 23 -46 24 -193 27 l-158 3 0 -215z"/>
<path d="M4234 2688 c-12 -5 -24 -22 -27 -37 -5 -29 0 -281 6 -287 10 -10 101
-21 130 -15 49 10 62 46 62 171 0 88 -3 111 -21 140 -19 33 -24 35 -75 37 -29
1 -64 -3 -75 -9z"/>
<path d="M5965 2518 c-114 -10 -151 -27 -178 -78 -21 -40 -17 -108 8 -146 31
-48 150 -55 243 -14 l42 19 0 115 c0 64 -3 115 -7 115 -5 -1 -53 -6 -108 -11z"/>
<path d="M6473 2755 c-49 -21 -65 -54 -66 -137 -1 -128 39 -168 171 -168 113
0 160 47 161 162 1 69 -23 123 -64 142 -41 20 -158 21 -202 1z"/>
<path d="M6454 2146 c-64 -30 -84 -57 -84 -116 0 -89 47 -115 205 -115 108 0
189 20 220 55 37 41 37 131 1 156 -19 12 -220 44 -276 44 -8 0 -38 -11 -66
-24z"/>
<path d="M7161 2748 c-46 -31 -71 -76 -78 -140 l-5 -53 166 3 166 3 0 50 c0
57 -18 106 -50 134 -16 15 -40 21 -93 23 -62 3 -77 1 -106 -20z"/>
</g>
</svg>
