<?xml version="1.0" standalone="no"?>
<!DOCTYPE svg PUBLIC "-//W3C//DTD SVG 20010904//EN"
 "http://www.w3.org/TR/2001/REC-SVG-20010904/DTD/svg10.dtd">
<svg version="1.0" xmlns="http://www.w3.org/2000/svg"
 width="400.000000pt" height="200.000000pt" viewBox="0 0 400.000000 200.000000"
 preserveAspectRatio="xMidYMid meet">
<metadata>
Created by potrace 1.16, written by Peter Selinger 2001-2019
</metadata>
<g transform="translate(0.000000,200.000000) scale(0.100000,-0.100000)"
fill="#000000" stroke="none">
<path d="M2040 929 c-39 -8 -90 -59 -90 -89 0 -23 32 -45 78 -55 18 -4 31 -12
29 -18 -5 -15 -57 -22 -57 -8 0 6 -18 11 -40 11 -47 0 -62 -20 -36 -49 39 -43
146 -33 198 19 47 47 33 84 -40 105 -39 11 -55 35 -23 35 11 0 23 -4 26 -10 3
-5 24 -10 46 -10 35 0 39 3 39 24 0 14 -5 28 -12 32 -22 14 -83 20 -118 13z"/>
<path d="M391 900 c-10 -30 -9 -30 25 -30 18 0 34 -1 34 -3 0 -2 -13 -40 -30
-85 l-30 -82 43 0 42 0 30 83 c30 82 30 82 68 85 30 3 40 9 47 28 6 14 10 27
10 30 0 2 -51 4 -114 4 l-114 0 -11 -30z"/>
<path d="M744 922 l-81 -3 -37 -98 c-20 -54 -36 -103 -36 -109 0 -8 31 -12 98
-12 96 0 99 1 110 25 12 25 12 25 -43 25 -29 0 -56 4 -59 8 -11 18 12 31 58
34 40 2 50 7 57 26 8 21 6 22 -41 22 -40 0 -48 3 -44 15 5 11 22 15 64 15 44
0 59 4 64 16 14 37 5 40 -110 36z"/>
<path d="M877 828 c-21 -57 -37 -109 -37 -115 0 -8 14 -13 34 -13 32 0 36 4
52 48 9 26 20 50 24 55 3 4 14 -18 24 -48 l17 -56 41 3 40 3 39 104 c21 57 39
108 39 112 0 5 -18 9 -39 9 -40 0 -40 -1 -57 -55 -10 -30 -21 -52 -24 -48 -4
5 -15 29 -24 56 -17 44 -20 47 -55 47 l-37 0 -37 -102z"/>
<path d="M1189 903 c-34 -89 -69 -186 -69 -194 0 -5 33 -9 73 -9 115 1 188 45
203 125 13 73 -28 105 -136 105 -57 0 -61 -2 -71 -27z"/>
<path d="M1540 922 l-75 -3 -34 -97 c-19 -53 -36 -103 -38 -109 -4 -10 20 -13
101 -13 58 0 106 4 106 9 0 5 3 16 6 25 5 12 -5 15 -48 18 -41 2 -54 7 -56 21
-3 14 5 17 52 17 31 0 56 4 56 9 0 5 3 16 6 25 5 13 -2 16 -40 16 -34 0 -46 4
-46 15 0 12 13 15 60 15 54 0 62 3 69 23 5 12 7 23 6 25 -5 6 -47 7 -125 4z"/>
<path d="M1705 913 c-15 -37 -75 -204 -75 -208 0 -3 18 -5 40 -5 38 0 41 3 56
40 10 26 23 40 34 40 25 0 39 -21 29 -45 -13 -33 -11 -35 34 -35 27 0 44 5 45
13 1 6 4 31 5 54 2 27 11 51 26 67 28 30 25 66 -9 83 -14 7 -59 13 -101 13
-64 0 -78 -3 -84 -17z"/>
<path d="M2926 922 c-8 -14 -76 -203 -76 -213 0 -5 18 -9 39 -9 28 0 41 5 46
18 15 36 75 203 75 207 0 9 -79 5 -84 -3z"/>
<path d="M3065 920 c-11 -17 -75 -195 -75 -207 0 -8 13 -13 34 -13 32 0 36 4
52 48 9 26 20 50 24 55 3 4 14 -18 24 -48 l17 -56 41 3 40 3 39 104 c21 57 39
108 39 112 0 5 -17 9 -38 9 -38 0 -39 -1 -57 -55 -11 -30 -22 -52 -25 -47 -4
4 -15 28 -24 55 -16 43 -20 47 -51 47 -19 0 -37 -4 -40 -10z"/>
<path d="M3625 916 c-94 -41 -140 -163 -78 -203 53 -35 158 -14 207 41 23 26
46 79 46 106 0 12 -11 32 -25 45 -19 20 -34 25 -72 25 -26 -1 -61 -7 -78 -14z"/>
<path d="M3346 912 c-7 -12 -76 -196 -76 -205 0 -5 19 -7 42 -5 37 3 42 6 53
38 11 32 15 35 56 38 43 3 59 14 59 40 0 7 -15 12 -40 12 -43 0 -45 2 -30 31
9 15 22 19 64 19 50 0 66 9 66 36 0 8 -189 4 -194 -4z"/>
<path d="M1475 565 c-8 -59 -22 -73 -27 -27 -3 24 -7 27 -38 27 -71 0 -84
-106 -13 -113 26 -3 34 2 47 25 l15 28 1 -26 c0 -25 3 -27 41 -25 22 1 45 9
50 17 8 12 11 12 19 -2 6 -11 23 -17 44 -17 34 0 35 1 41 51 8 58 -9 82 -48
68 -33 -12 -35 -35 -3 -27 29 7 37 -11 9 -20 -10 -3 -26 -9 -35 -14 -14 -8
-17 -4 -20 23 -2 26 -8 33 -29 35 -22 3 -25 7 -21 28 3 17 0 24 -11 24 -11 0
-17 -15 -22 -55z"/>
<path d="M3283 603 c-7 -3 -13 -11 -13 -19 0 -8 -10 -14 -24 -14 -27 0 -31 -8
-42 -75 -10 -69 17 -55 32 16 13 59 17 57 18 -11 l1 -45 62 -1 62 -2 7 44 c9
63 1 76 -43 72 -31 -2 -38 1 -43 18 -3 12 -11 19 -17 17z"/>
</g>
</svg>
