<?xml version="1.0" standalone="no"?>
<!DOCTYPE svg PUBLIC "-//W3C//DTD SVG 20010904//EN"
 "http://www.w3.org/TR/2001/REC-SVG-20010904/DTD/svg10.dtd">
<svg version="1.0" xmlns="http://www.w3.org/2000/svg"
 width="526.000000pt" height="198.000000pt" viewBox="0 0 526.000000 198.000000"
 preserveAspectRatio="xMidYMid meet">
<metadata>
Created by potrace 1.16, written by Peter Selinger 2001-2019
</metadata>
<g transform="translate(0.000000,198.000000) scale(0.100000,-0.100000)"
fill="#000000" stroke="none">
<path d="M3270 1665 c-113 -32 -173 -103 -173 -205 0 -67 21 -109 73 -144 32
-22 73 -37 231 -80 66 -18 92 -43 87 -83 -8 -71 -164 -85 -290 -26 l-66 31
-20 -46 c-31 -71 -30 -73 13 -98 132 -77 371 -67 464 19 87 81 76 234 -22 292
-23 13 -93 38 -155 54 -126 35 -150 47 -158 78 -20 78 111 118 236 72 30 -11
62 -22 70 -25 11 -3 21 11 38 53 21 55 21 59 5 71 -57 42 -242 62 -333 37z"/>
<path d="M1950 1315 l0 -345 265 0 265 0 0 65 0 65 -190 0 -190 0 0 80 0 80
160 0 160 0 0 60 0 59 -157 3 -158 3 -3 73 -3 72 181 0 180 0 0 65 0 65 -255
0 -255 0 0 -345z"/>
<path d="M2580 1595 l0 -65 120 0 120 0 0 -182 c0 -164 -2 -186 -20 -215 -34
-57 -111 -55 -182 5 -16 13 -30 23 -32 21 -1 -2 -20 -26 -41 -53 l-40 -49 40
-33 c95 -83 284 -84 365 -3 60 61 64 78 68 372 l4 267 -201 0 -201 0 0 -65z"/>
<path d="M766 1349 c-28 -33 -36 -102 -16 -140 16 -29 68 -52 105 -45 53 10
80 48 80 113 0 48 -4 58 -28 79 -20 17 -40 24 -72 24 -36 0 -47 -5 -69 -31z"/>
<path d="M947 1181 c-75 -110 -137 -202 -137 -205 0 -3 15 -6 33 -6 30 1 38
10 152 177 66 97 128 189 138 205 l19 28 -34 0 c-33 0 -38 -6 -171 -199z"/>
<path d="M4014 1365 c-49 -34 -56 -125 -13 -171 30 -32 78 -40 117 -20 41 21
52 44 52 104 0 40 -5 54 -26 76 -31 30 -95 36 -130 11z"/>
<path d="M4195 1203 c-66 -98 -128 -190 -138 -205 l-19 -28 35 0 c34 0 38 4
171 199 75 110 136 202 136 205 0 3 -15 6 -32 6 -31 -1 -39 -10 -153 -177z"/>
<path d="M540 1266 l-135 -52 0 -38 0 -39 138 -53 137 -52 0 37 c0 34 -3 38
-37 50 -168 60 -165 54 -40 97 l77 27 0 39 c0 21 -1 38 -2 37 -2 -1 -64 -24
-138 -53z"/>
<path d="M4510 1279 c0 -24 5 -39 13 -40 6 0 49 -15 95 -33 l83 -32 -95 -34
-96 -34 0 -37 0 -37 138 52 137 53 0 39 0 38 -137 52 -138 52 0 -39z"/>
<path d="M1270 1255 l0 -35 140 0 140 0 0 35 0 35 -140 0 -140 0 0 -35z"/>
<path d="M1068 1185 c-37 -21 -48 -44 -48 -105 0 -44 5 -56 29 -81 40 -40 89
-40 133 0 30 27 33 35 33 85 0 46 -4 60 -26 81 -31 32 -85 40 -121 20z"/>
<path d="M4315 1191 c-81 -34 -84 -178 -4 -211 73 -31 139 17 139 102 0 60
-11 83 -50 103 -32 16 -55 18 -85 6z"/>
<path d="M1270 1105 l0 -35 140 0 140 0 0 35 0 35 -140 0 -140 0 0 -35z"/>
</g>
</svg>
