<?xml version="1.0" standalone="no"?>
<!DOCTYPE svg PUBLIC "-//W3C//DTD SVG 20010904//EN"
 "http://www.w3.org/TR/2001/REC-SVG-20010904/DTD/svg10.dtd">
<svg version="1.0" xmlns="http://www.w3.org/2000/svg"
 width="980.000000pt" height="530.000000pt" viewBox="0 0 980.000000 530.000000"
 preserveAspectRatio="xMidYMid meet">
<metadata>
Created by potrace 1.16, written by Peter Selinger 2001-2019
</metadata>
<g transform="translate(0.000000,530.000000) scale(0.100000,-0.100000)"
fill="#000000" stroke="none">
<path d="M2090 4301 c-250 -80 -596 -382 -812 -710 -154 -233 -213 -420 -174
-554 14 -48 26 -65 81 -114 43 -39 63 -63 59 -73 -30 -76 -20 -219 21 -300 52
-103 187 -202 296 -216 l48 -6 48 -86 c91 -163 263 -316 443 -393 158 -68 241
-83 445 -84 200 0 285 15 431 76 299 125 522 421 526 700 1 78 -15 116 -59
144 -23 14 -37 35 -51 75 -18 53 -18 56 -1 95 58 128 -24 245 -212 299 l-56
17 -7 124 c-7 144 -30 230 -80 302 l-34 49 50 60 c104 125 159 286 128 379
-56 169 -307 206 -602 87 l-73 -30 -76 74 c-42 41 -93 81 -113 89 -47 20 -158
18 -226 -4z m206 -91 c18 -12 51 -43 74 -70 l40 -48 -83 -51 c-192 -116 -399
-287 -516 -428 -116 -138 -252 -366 -299 -502 -6 -17 -19 -34 -29 -37 -60 -19
-104 -44 -145 -82 l-47 -44 -36 28 c-53 40 -70 78 -68 154 4 252 345 722 693
955 192 129 338 173 416 125z m264 -355 c-13 -14 -22 -26 -19 -28 2 -2 36 -9
74 -16 66 -12 163 -46 154 -55 -2 -2 -29 0 -59 6 -30 6 -116 8 -190 5 -179 -6
-303 -42 -470 -137 l-55 -31 85 83 c76 75 184 159 225 174 13 5 13 2 -1 -31
-8 -20 -14 -39 -12 -40 2 -2 35 12 73 31 67 33 159 62 199 63 18 1 18 -1 -4
-24z m412 -355 c36 -39 45 -80 53 -235 4 -77 12 -138 20 -150 8 -13 45 -31
105 -50 101 -31 170 -82 170 -124 0 -99 -154 -211 -369 -269 -86 -23 -115 -26
-288 -26 -211 -1 -215 -2 -250 -70 -20 -39 -13 -128 13 -164 31 -43 140 -92
220 -100 86 -9 220 1 304 23 98 25 238 96 293 150 27 25 47 49 44 51 -3 3 -28
-9 -56 -26 -239 -148 -605 -189 -730 -84 -17 14 -31 32 -31 40 0 17 -9 17 102
-2 95 -17 168 -14 253 7 25 6 45 14 45 18 0 3 -57 7 -128 8 -195 2 -319 42
-245 78 14 7 47 8 100 3 211 -22 475 34 642 137 39 24 72 41 75 37 5 -9 23
-71 30 -104 4 -19 13 -28 26 -28 11 0 27 -11 36 -25 14 -22 15 -33 4 -91 -40
-210 -229 -397 -469 -463 -319 -88 -624 43 -702 301 -18 58 -21 87 -17 167 7
115 29 181 92 265 51 68 51 69 -20 149 -24 27 -56 74 -71 105 -59 121 -27 280
72 356 66 50 113 60 231 48 62 -6 119 -7 149 -1 47 9 127 49 141 70 12 20 68
39 99 34 17 -3 42 -18 57 -35z m-1311 -537 c94 -48 141 -142 142 -283 2 -166
-68 -253 -200 -251 -110 1 -232 94 -269 203 -20 62 -15 156 12 213 28 59 86
112 141 129 72 22 113 19 174 -11z"/>
<path d="M2884 3296 c-23 -17 -22 -85 2 -145 13 -34 21 -41 44 -41 44 0 51 39
25 128 -18 59 -42 79 -71 58z"/>
<path d="M1493 2870 c-39 -23 -63 -67 -63 -114 0 -45 17 -55 32 -19 20 48 49
73 83 73 55 0 67 -25 59 -123 -6 -78 -5 -86 15 -106 23 -23 70 -28 89 -9 19
19 14 27 -20 30 -41 4 -47 28 -24 95 26 77 22 110 -23 154 -32 32 -46 39 -77
39 -22 0 -53 -9 -71 -20z"/>
<path d="M5854 3135 c-166 -83 -355 -320 -356 -449 -1 -38 4 -52 27 -76 25
-26 28 -37 26 -79 -4 -80 38 -138 119 -162 26 -8 42 -21 55 -45 27 -51 108
-122 173 -152 52 -25 67 -27 182 -27 117 0 129 2 182 28 110 54 187 158 196
263 4 45 1 53 -19 68 -21 14 -24 23 -22 73 3 65 -16 94 -72 113 -30 10 -33 14
-39 72 -3 34 -15 77 -26 96 -21 34 -21 35 -2 56 72 79 73 180 2 205 -48 16
-93 14 -161 -9 l-61 -21 -39 36 c-48 43 -93 46 -165 10z m146 -40 c13 -14 22
-26 19 -28 -2 -1 -29 -19 -61 -39 -123 -80 -238 -213 -284 -328 -9 -22 -22
-40 -29 -40 -8 0 -27 -11 -43 -25 l-30 -25 -22 27 c-16 21 -20 36 -16 62 14
90 122 245 230 330 114 91 192 113 236 66z m237 -253 c19 -12 33 -59 33 -111
0 -52 9 -64 53 -75 29 -7 67 -39 67 -57 0 -6 -14 -24 -31 -40 -43 -40 -143
-69 -240 -69 -67 0 -80 -3 -89 -19 -62 -116 150 -160 303 -64 56 35 40 38 -29
6 -49 -23 -73 -28 -141 -28 -67 0 -86 3 -100 18 -17 18 -16 18 37 12 30 -4 66
-2 80 3 20 7 11 10 -48 14 -40 3 -76 8 -79 12 -13 13 9 19 63 17 71 -3 156 15
216 45 55 28 58 28 58 11 0 -8 9 -24 20 -37 51 -59 -50 -197 -170 -230 -89
-25 -198 -3 -247 51 -57 62 -58 173 -2 250 9 12 6 24 -20 59 -42 59 -43 116
-2 162 28 32 32 33 98 31 57 -3 74 1 108 22 45 27 45 28 62 17z m-488 -246
c29 -29 39 -102 21 -147 -25 -60 -98 -62 -150 -3 -49 56 -36 143 25 170 37 17
73 10 104 -20z"/>
<path d="M7582 2653 l3 -198 55 0 55 0 3 198 2 197 -60 0 -60 0 2 -197z"/>
<path d="M8030 2650 l0 -200 55 0 55 0 0 94 c0 76 4 98 18 116 17 21 19 21 35
5 14 -13 17 -36 17 -116 l0 -99 56 0 56 0 -4 128 c-4 135 -12 161 -55 181 -52
24 -97 6 -135 -53 -18 -27 -19 -28 -13 -6 3 14 9 53 12 88 l6 62 -52 0 -51 0
0 -200z"/>
<path d="M6747 2759 c-9 -5 -26 -27 -37 -47 l-20 -37 6 43 7 42 -47 0 -47 0 3
-152 3 -153 55 0 55 0 3 85 c3 116 7 132 35 128 21 -3 22 -8 25 -110 l3 -108
53 0 54 0 4 100 c3 105 17 139 48 120 11 -7 16 -35 18 -115 l4 -106 51 3 52 3
3 75 c5 120 -5 179 -38 212 -48 47 -109 33 -151 -36 -17 -28 -19 -29 -19 -8 0
52 -75 89 -123 61z"/>
<path d="M7168 2754 c-48 -15 -48 -15 -48 -59 0 -25 2 -45 4 -45 2 0 20 7 39
15 66 27 127 17 127 -21 0 -2 -25 -4 -55 -4 -66 0 -102 -15 -121 -51 -17 -34
-18 -60 -3 -92 31 -69 160 -58 186 16 6 19 8 16 13 -18 5 -39 6 -40 48 -43
l42 -3 0 106 c0 123 -13 165 -62 195 -39 24 -102 25 -170 4z"/>
<path d="M7803 2751 c-54 -25 -77 -68 -77 -142 1 -69 26 -117 74 -141 43 -22
109 -23 155 -4 34 15 35 17 35 70 l0 55 -27 -15 c-34 -17 -114 -19 -131 -2
-19 19 -14 55 10 72 28 20 68 20 113 2 l35 -15 0 55 c0 53 -1 55 -35 70 -47
19 -102 17 -152 -5z"/>
<path d="M8631 2753 c-11 -10 -27 -31 -36 -48 l-15 -30 6 43 7 42 -47 0 -47 0
3 -152 3 -153 55 0 55 0 3 85 c3 116 7 132 35 128 21 -3 22 -8 25 -110 l3
-108 54 0 55 0 0 93 c0 97 15 142 45 131 11 -5 15 -31 17 -112 l3 -107 55 0
55 0 3 65 c2 36 0 94 -3 129 -6 52 -12 70 -35 93 -47 47 -111 33 -148 -30 -19
-32 -22 -34 -22 -14 0 57 -84 92 -129 55z"/>
<path d="M9143 2760 c-13 -5 -32 -24 -43 -42 l-20 -33 0 38 c0 37 0 37 -40 37
l-40 0 0 -195 0 -195 55 0 55 0 0 62 0 61 23 -21 c52 -49 145 -12 167 66 39
144 -47 266 -157 222z"/>
<path d="M7440 2602 l0 -153 53 3 52 3 3 150 2 150 -55 0 -55 0 0 -153z"/>
<path d="M8352 2605 l3 -150 55 0 55 0 3 150 2 150 -60 0 -60 0 2 -150z"/>
<path d="M2040 1244 l0 -195 53 3 52 3 3 193 2 192 -55 0 -55 0 0 -196z"/>
<path d="M2470 1244 l0 -195 53 3 52 3 3 97 c3 103 16 134 47 108 11 -10 15
-36 15 -111 l0 -99 55 0 55 0 0 113 c0 138 -15 177 -72 191 -48 12 -81 -3
-108 -46 -11 -18 -20 -31 -20 -28 0 3 5 32 10 65 14 84 8 95 -46 95 l-44 0 0
-196z"/>
<path d="M1217 1337 c-12 -13 -27 -32 -34 -43 -10 -16 -11 -13 -6 19 l6 37
-42 0 -41 0 0 -151 0 -150 53 3 52 3 3 97 c2 73 7 99 18 109 30 25 44 -14 44
-118 l0 -94 53 3 52 3 3 97 c2 73 7 99 18 109 30 24 44 -14 44 -118 l0 -93 50
0 50 0 0 126 c0 125 0 126 -29 155 -46 46 -104 37 -140 -22 l-18 -30 -13 31
c-22 54 -84 68 -123 27z"/>
<path d="M1640 1347 c-44 -12 -45 -13 -48 -58 l-3 -46 57 19 c44 15 63 17 81
9 36 -16 27 -31 -17 -31 -83 0 -140 -44 -140 -108 0 -77 106 -113 164 -56 14
15 27 34 27 43 1 9 5 -2 8 -24 6 -39 7 -40 49 -43 l42 -3 0 93 c0 161 -28 209
-122 214 -29 2 -73 -2 -98 -9z"/>
<path d="M2251 1342 c-56 -28 -76 -64 -76 -136 0 -71 17 -106 68 -136 39 -24
116 -26 157 -5 27 14 30 20 30 65 l0 49 -35 -15 c-48 -20 -91 -18 -115 6 -24
24 -25 29 -4 59 14 20 23 22 68 19 28 -3 59 -8 69 -12 15 -7 17 -2 17 43 0 50
-1 53 -35 67 -46 19 -103 18 -144 -4z"/>
<path d="M3057 1349 c-9 -5 -26 -27 -36 -47 l-19 -37 5 43 6 42 -42 0 -41 0 0
-150 0 -150 55 0 55 0 0 93 c0 104 14 143 44 118 13 -11 16 -34 16 -112 l0
-99 55 0 55 0 0 93 c0 104 14 143 44 118 13 -11 16 -34 16 -113 l0 -99 53 3
52 3 0 117 c0 103 -2 120 -21 145 -43 58 -110 55 -151 -6 l-22 -33 -7 26 c-12
48 -72 71 -117 45z"/>
<path d="M3522 1323 l-38 -39 4 33 c4 33 4 33 -37 33 l-41 0 0 -190 0 -190 55
0 55 0 0 56 c0 55 0 55 22 40 12 -9 39 -16 58 -16 83 0 131 108 100 221 -13
48 -50 79 -99 86 -38 5 -44 3 -79 -34z"/>
<path d="M1892 1200 l3 -145 53 -3 52 -3 0 148 0 148 -55 0 -56 0 3 -145z"/>
<path d="M2782 1200 l3 -145 53 -3 52 -3 0 148 0 148 -55 0 -56 0 3 -145z"/>
</g>
</svg>
