<?xml version="1.0" standalone="no"?>
<!DOCTYPE svg PUBLIC "-//W3C//DTD SVG 20010904//EN"
 "http://www.w3.org/TR/2001/REC-SVG-20010904/DTD/svg10.dtd">
<svg version="1.0" xmlns="http://www.w3.org/2000/svg"
 width="1200.000000pt" height="1204.000000pt" viewBox="0 0 1200.000000 1204.000000"
 preserveAspectRatio="xMidYMid meet">
<metadata>
Created by potrace 1.16, written by Peter Selinger 2001-2019
</metadata>
<g transform="translate(0.000000,1204.000000) scale(0.100000,-0.100000)"
fill="#000000" stroke="none">
<path d="M5805 11400 c-558 -24 -1155 -139 -1675 -322 -450 -157 -1071 -511
-1500 -853 -482 -385 -912 -880 -1233 -1420 -120 -201 -271 -512 -400 -823
-141 -339 -194 -494 -241 -707 -165 -754 -162 -1639 9 -2404 336 -1504 1127
-2609 2466 -3444 155 -96 424 -249 547 -311 530 -265 1148 -422 1842 -467 226
-14 701 -6 920 16 1317 133 2365 624 3235 1516 773 793 1274 1727 1490 2779
119 582 143 1168 69 1705 -167 1221 -798 2471 -1675 3320 -1026 993 -2354
1481 -3854 1415z m636 -270 c854 -66 1641 -337 2344 -809 360 -241 660 -503
978 -854 412 -453 535 -622 712 -982 176 -354 324 -774 450 -1274 160 -632
192 -1296 95 -1950 -166 -1117 -708 -2195 -1469 -2923 -730 -698 -1565 -1126
-2579 -1322 -1003 -195 -2053 -79 -3009 330 -1074 459 -1883 1215 -2472 2309
-297 552 -475 1172 -547 1905 -22 217 -25 731 -6 930 39 408 100 694 238 1113
335 1016 845 1767 1599 2352 602 467 1174 776 1796 969 386 119 749 183 1189
209 137 8 559 6 681 -3z"/>
<path d="M5800 10914 c-533 -31 -1065 -147 -1540 -335 -166 -66 -466 -213
-620 -304 -610 -361 -1188 -885 -1572 -1425 -392 -552 -687 -1236 -812 -1885
-95 -494 -113 -1055 -50 -1560 142 -1145 676 -2200 1494 -2950 854 -784 1889
-1234 3025 -1316 199 -14 618 -6 810 16 989 114 1825 472 2591 1111 153 127
460 434 596 594 263 312 456 608 537 825 24 64 176 415 228 525 165 351 277
765 335 1241 19 162 22 231 22 589 0 360 -2 426 -22 589 -119 967 -465 1785
-1069 2524 -136 167 -479 512 -643 647 -542 448 -1027 697 -1780 915 -320 92
-602 149 -900 179 -146 16 -510 27 -630 20z m74 -574 c1 -215 3 -249 19 -277
49 -90 179 -95 241 -10 20 27 21 44 24 284 l3 256 67 -7 c37 -3 87 -6 111 -6
l43 0 -5 -257 c-5 -287 -12 -329 -70 -405 -22 -29 -56 -55 -101 -78 -68 -34
-71 -35 -190 -35 -117 0 -124 1 -188 33 -78 38 -120 86 -149 167 -17 49 -19
83 -19 320 l0 266 107 -3 107 -3 0 -245z m1456 36 c190 -59 306 -99 307 -107
4 -20 -44 -164 -54 -164 -4 0 -52 13 -106 29 -58 17 -101 25 -107 20 -4 -5
-44 -128 -88 -273 -45 -145 -83 -265 -85 -268 -3 -2 -50 9 -105 26 l-99 31 83
272 c46 150 83 277 81 282 -2 5 -49 23 -106 40 -56 17 -103 36 -102 41 0 6 10
45 22 88 16 55 26 77 38 77 9 -1 153 -43 321 -94z m-2301 -290 c149 -173 267
-317 263 -319 -4 -2 -52 -19 -106 -37 l-99 -33 -51 57 -51 57 -142 -46 -143
-46 0 -52 c0 -93 -1 -93 -111 -128 -55 -18 -102 -30 -105 -27 -5 5 63 803 71
825 4 12 184 73 196 67 4 -2 129 -145 278 -318z m3365 -189 c-4 -7 -38 -58
-76 -114 -37 -56 -68 -106 -68 -111 0 -16 221 -156 228 -145 84 130 149 223
157 223 6 0 47 -25 93 -55 54 -37 80 -60 75 -68 -17 -29 -406 -613 -414 -621
-7 -8 -162 85 -175 105 -3 5 29 61 71 124 41 64 75 119 75 123 -1 8 -221 155
-225 150 -1 -2 -35 -52 -75 -113 -40 -60 -76 -114 -80 -118 -8 -10 -182 102
-178 114 2 4 97 149 213 322 l210 314 88 -59 c57 -38 85 -63 81 -71z m-4672
-78 c122 -26 226 -110 281 -227 29 -61 32 -76 32 -163 0 -90 -2 -99 -37 -170
-158 -320 -592 -333 -744 -24 -73 151 -42 325 82 456 106 110 247 157 386 128z
m2347 -405 c-11 -13 13 -40 172 -200 l184 -184 155 155 c134 134 190 177 190
147 0 -4 -72 -79 -160 -167 l-160 -160 182 -182 183 -183 182 182 183 183
-148 149 c-123 124 -142 147 -117 142 20 -5 72 -49 160 -137 l130 -129 62 61
c46 46 66 60 79 55 15 -6 7 -18 -49 -74 l-67 -67 182 -182 183 -183 127 127
c101 101 130 125 140 115 10 -10 -13 -38 -110 -135 -67 -67 -122 -127 -122
-132 0 -6 81 -91 180 -190 l180 -180 140 140 c113 113 140 136 146 121 5 -14
-24 -48 -127 -152 l-134 -134 183 -182 182 -183 135 135 c107 107 137 132 147
122 10 -10 -15 -40 -122 -147 l-135 -135 183 -182 182 -183 100 100 c81 81
100 96 106 81 5 -14 -16 -40 -87 -112 l-94 -94 185 -185 184 -185 27 26 c24
23 27 23 33 8 4 -11 -1 -25 -14 -38 l-20 -20 40 -41 c22 -23 45 -56 50 -75 10
-34 9 -34 -52 28 l-63 62 -182 -182 -183 -183 182 -182 183 -183 102 102 c89
89 103 99 103 78 0 -19 -24 -50 -90 -115 l-90 -89 105 -107 c74 -75 105 -113
105 -130 0 -20 -20 -4 -118 94 l-117 117 -185 -185 -185 -185 182 -182 183
-183 103 103 c56 56 105 102 109 102 23 0 -18 -58 -96 -137 l-91 -93 63 -63
c54 -54 78 -97 55 -97 -4 0 -38 30 -75 67 l-68 68 -183 -183 -182 -182 163
-163 c127 -127 161 -167 156 -181 -6 -15 -38 14 -175 150 l-169 169 -182 -183
-183 -182 185 -185 185 -185 128 128 c124 122 128 125 104 77 -15 -29 -63 -87
-116 -140 l-91 -89 31 -33 c22 -21 30 -37 25 -49 -6 -15 -12 -12 -44 19 l-38
37 -184 -185 -185 -185 58 -58 c55 -56 70 -82 45 -82 -7 0 -38 26 -70 57 l-58
58 -182 -183 -183 -182 58 -58 c49 -50 56 -60 41 -66 -13 -5 -32 8 -71 46
l-53 53 -182 -182 c-182 -182 -182 -182 -163 -203 16 -18 17 -23 5 -30 -10 -6
-21 -3 -33 7 -17 16 -21 13 -75 -39 -31 -31 -77 -66 -102 -78 -44 -21 -43 -20
45 69 l90 91 -180 180 c-99 99 -184 180 -190 180 -6 0 -91 -81 -190 -180
l-180 -180 145 -145 c117 -117 141 -145 126 -151 -14 -5 -49 25 -157 132
l-139 139 -182 -182 -182 -182 29 -31 c29 -30 29 -30 5 -30 -13 0 -32 7 -42
17 -17 15 -20 15 -41 -4 -22 -20 -67 -37 -67 -25 0 3 14 21 32 39 l32 34 -182
182 -182 182 -182 -182 -182 -183 39 -40 c37 -38 38 -40 15 -40 -13 0 -36 12
-52 27 l-28 27 -24 -23 c-16 -15 -31 -21 -42 -17 -15 6 -14 10 12 37 l28 30
-182 182 -182 182 -143 -143 c-123 -122 -177 -164 -177 -135 0 4 66 74 147
155 l148 148 -180 180 c-99 99 -184 180 -190 180 -6 0 -91 -81 -190 -180
l-180 -180 110 -111 c101 -102 107 -109 70 -94 -23 9 -75 51 -122 97 l-83 82
-30 -29 c-23 -22 -33 -26 -42 -17 -9 9 -5 19 17 42 l29 31 -182 182 -182 182
-69 -69 c-52 -51 -74 -67 -87 -62 -15 6 -5 20 57 82 l74 74 -183 182 -182 183
-83 -83 c-65 -65 -85 -80 -95 -70 -10 10 5 30 70 95 l83 83 -185 185 -185 185
-62 -62 c-52 -52 -63 -59 -69 -44 -5 13 8 33 50 74 l56 57 -185 185 c-125 125
-190 198 -201 225 -16 39 -16 40 3 23 18 -17 26 -11 203 167 l185 185 -182
182 -183 183 -90 -90 c-78 -78 -90 -86 -90 -65 0 17 23 48 77 102 l78 78 -97
98 c-85 86 -125 142 -101 142 4 0 56 -48 115 -107 l108 -108 182 183 183 182
-180 180 c-99 99 -184 180 -190 180 -5 0 -58 -48 -117 -107 -92 -92 -108 -104
-108 -83 0 18 28 52 100 125 l100 100 -90 90 c-65 65 -90 96 -90 115 0 21 14
11 103 -78 l102 -102 183 183 182 182 -183 183 -182 182 -68 -67 c-65 -66 -67
-67 -57 -33 5 19 30 55 55 80 45 46 46 46 25 65 -11 10 -20 30 -20 44 l0 25
33 -32 33 -32 184 185 185 185 -98 98 c-75 75 -96 102 -91 116 6 15 25 -1 110
-85 l104 -104 182 183 183 182 -140 140 c-111 111 -137 142 -127 152 10 10 41
-16 152 -127 l140 -140 182 183 183 182 -148 148 c-117 117 -145 150 -135 160
10 10 43 -18 160 -135 l148 -148 185 185 185 185 -122 122 c-97 97 -120 125
-110 135 10 10 38 -13 135 -110 l122 -122 183 183 182 182 -60 60 c-50 49 -57
61 -44 68 12 7 29 -4 73 -47 l56 -56 114 114 c78 78 124 117 149 124 32 10 21
-3 -101 -126 l-137 -137 183 -183 182 -182 183 183 182 182 -155 155 c-85 85
-155 158 -155 162 0 30 55 -12 185 -142 l150 -150 184 184 c159 160 183 187
172 200 -12 14 -7 16 39 16 46 0 51 -2 39 -16z m2643 -6312 c79 -39 159 -120
196 -199 24 -51 27 -70 27 -159 0 -95 -2 -104 -37 -175 -101 -204 -325 -296
-532 -219 -79 30 -166 113 -208 198 -31 62 -33 73 -33 172 0 98 2 110 32 170
53 107 148 190 268 233 37 13 72 17 136 14 73 -3 97 -8 151 -35z m-4857 -204
c61 -36 84 -55 80 -66 -3 -8 -35 -64 -71 -124 -56 -92 -64 -112 -53 -122 8 -7
60 -41 116 -74 l103 -61 71 120 c40 66 75 121 79 124 12 7 180 -99 176 -112
-3 -7 -91 -157 -196 -333 l-192 -321 -36 22 c-113 66 -142 84 -142 91 0 4 32
59 70 123 39 64 70 118 70 120 0 6 -217 135 -228 135 -6 0 -43 -54 -83 -120
l-71 -120 -42 25 c-22 14 -62 38 -88 53 -27 15 -48 31 -48 35 0 15 386 657
395 657 2 0 42 -23 90 -52z m3807 -768 l-17 -364 -85 -33 c-47 -18 -93 -31
-102 -30 -22 3 -581 598 -571 608 5 4 51 24 103 43 l95 36 53 -54 53 -55 139
51 139 51 3 75 3 75 100 37 100 37 2 -56 c2 -31 -5 -220 -15 -421z m-2581 233
c66 -18 98 -31 95 -39 -15 -39 -147 -546 -143 -550 3 -3 50 -18 106 -33 56
-16 104 -30 106 -32 2 -2 -7 -42 -20 -89 -16 -61 -27 -85 -38 -84 -17 2 -630
166 -636 171 -2 1 6 41 19 88 17 62 27 85 39 85 9 0 58 -12 110 -26 51 -14 95
-23 98 -20 4 4 69 238 142 514 7 23 14 42 17 42 3 0 50 -12 105 -27z m1218
-124 c101 -21 185 -100 217 -203 10 -34 20 -135 28 -301 7 -137 12 -251 12
-252 -1 -1 -49 -5 -107 -8 l-106 -8 -6 74 c-4 41 -9 147 -13 237 -6 138 -10
170 -28 205 -56 112 -228 94 -253 -26 -6 -25 -5 -133 0 -265 5 -122 7 -226 3
-229 -3 -3 -50 -8 -105 -11 l-100 -5 -6 34 c-3 19 -7 147 -8 284 -2 242 -1
252 21 300 41 89 126 155 226 175 60 12 168 12 225 -1z"/>
<path d="M4726 10088 c-6 -52 -16 -188 -13 -188 22 2 152 51 152 58 0 5 -30
46 -67 91 l-67 82 -5 -43z"/>
<path d="M3535 9603 c-92 -48 -129 -133 -101 -227 27 -88 89 -144 178 -161
102 -19 217 78 218 184 0 82 -49 165 -121 201 -47 24 -131 26 -174 3z"/>
<path d="M5847 9192 c-97 -97 -177 -182 -177 -187 0 -6 81 -91 180 -190 l180
-180 180 180 c99 99 180 184 180 190 0 10 -350 365 -360 365 -3 0 -85 -80
-183 -178z"/>
<path d="M4672 8797 l-182 -182 183 -183 182 -182 183 183 182 182 -183 183
-182 182 -183 -183z"/>
<path d="M5457 8802 c-97 -97 -177 -182 -177 -187 0 -6 81 -91 180 -190 l180
-180 183 183 182 182 -185 185 -185 185 -178 -178z"/>
<path d="M6240 8795 l-185 -185 183 -182 182 -183 185 185 185 185 -183 183
-182 182 -185 -185z"/>
<path d="M7022 8797 l-182 -182 183 -183 182 -182 183 183 182 182 -183 183
-182 182 -183 -183z"/>
<path d="M4280 8405 l-185 -185 183 -182 182 -183 185 185 185 185 -183 183
-182 182 -185 -185z"/>
<path d="M5062 8407 l-182 -182 184 -184 184 -184 -20 -47 c-14 -35 -60 -88
-184 -211 l-164 -164 86 -86 c66 -66 85 -92 80 -105 -6 -15 -23 -2 -99 74
l-92 92 -183 -183 -182 -182 183 -183 c101 -100 186 -179 191 -175 4 4 4 -6 1
-22 -5 -21 -64 -87 -191 -215 l-184 -185 95 -96 c73 -72 94 -99 89 -113 -6
-15 -25 0 -108 83 l-101 101 -185 -185 -185 -185 182 -182 182 -182 26 24 c29
28 29 28 10 -38 -10 -32 -20 -49 -28 -46 -6 2 -93 -77 -192 -176 l-180 -180
104 -104 c79 -80 102 -108 97 -122 -6 -15 -27 2 -116 91 l-110 110 -183 -183
-182 -182 185 -185 184 -185 38 37 c34 33 38 35 38 16 0 -12 -11 -35 -25 -51
-24 -29 -24 -29 -5 -47 11 -10 20 -30 20 -44 l0 -25 -33 32 -33 32 -184 -185
-185 -185 183 -182 182 -183 143 143 c113 113 145 140 155 130 10 -10 -17 -42
-130 -155 l-143 -143 183 -182 182 -183 185 185 185 185 -92 92 c-78 78 -89
93 -69 93 16 0 50 -26 105 -80 l82 -79 182 182 c181 182 183 183 162 202 -15
14 -17 21 -8 32 9 11 14 10 32 -6 l22 -20 182 182 182 182 -110 110 c-95 94
-131 145 -103 145 4 0 60 -52 123 -115 l115 -115 185 185 185 185 -55 55 c-49
50 -52 55 -30 55 15 0 41 -16 67 -42 l43 -42 43 42 c26 26 52 42 67 42 22 0
19 -5 -30 -55 l-55 -55 185 -185 185 -185 141 141 c117 117 142 138 146 121 4
-15 -25 -50 -128 -153 l-134 -134 182 -182 183 -183 43 43 c35 34 44 39 52 27
7 -11 -1 -25 -30 -55 l-40 -40 182 -182 182 -182 82 79 c55 54 89 80 105 80
20 0 9 -15 -69 -93 l-92 -92 185 -185 185 -185 182 183 183 182 -134 134
c-108 109 -130 134 -115 140 14 5 47 -22 146 -121 l128 -128 182 183 183 182
-188 188 c-117 117 -187 195 -187 207 0 12 70 90 187 207 l188 188 -182 182
-183 183 -90 -90 c-73 -73 -90 -86 -96 -71 -5 13 14 38 77 102 l84 84 -167
168 c-122 122 -171 178 -182 207 l-14 40 181 182 182 183 -180 180 c-99 99
-184 180 -190 180 -6 0 -46 -36 -90 -80 -44 -44 -83 -80 -87 -80 -26 0 3 46
72 115 l80 80 -165 165 c-129 130 -168 174 -180 210 l-16 44 181 181 180 180
-183 183 -182 182 -87 -87 c-72 -72 -88 -84 -94 -69 -5 14 13 37 74 99 l82 82
-164 165 c-130 131 -167 175 -181 213 l-18 49 181 181 182 182 -183 183 -182
182 -185 -185 -185 -185 55 -55 55 -56 -40 16 c-22 9 -52 28 -67 43 -26 24
-29 24 -46 9 -10 -9 -29 -17 -42 -17 -24 0 -24 0 5 30 l29 31 -182 182 -182
182 -182 -182 -182 -182 29 -31 c29 -30 29 -30 5 -30 -13 0 -32 8 -42 17 -17
15 -20 15 -46 -10 -15 -14 -45 -33 -67 -42 l-40 -17 55 56 55 56 -185 185
-185 185 -183 -183z m1323 -357 c132 -21 278 -127 333 -242 12 -24 274 -803
584 -1733 l563 -1690 0 -110 c-1 -91 -5 -120 -23 -167 -81 -203 -287 -322
-499 -288 -132 21 -256 103 -320 211 -26 44 -144 387 -285 826 l-20 63 -662 0
-662 0 -119 -387 c-65 -214 -133 -420 -151 -458 -80 -173 -283 -283 -469 -255
-120 17 -203 59 -282 142 -91 97 -127 198 -121 336 4 82 34 183 536 1772 293
927 545 1709 560 1739 55 111 184 209 312 237 68 15 637 18 725 4z"/>
<path d="M7412 8407 l-182 -182 185 -185 185 -185 182 183 183 182 -185 185
-185 185 -183 -183z"/>
<path d="M3885 8010 l-180 -180 183 -183 182 -182 182 182 183 183 -180 180
c-99 99 -182 180 -185 180 -3 0 -86 -81 -185 -180z"/>
<path d="M4665 8010 l-180 -180 180 -180 c99 -99 184 -180 190 -180 6 0 91 81
190 180 l180 180 -180 180 c-99 99 -184 180 -190 180 -6 0 -91 -81 -190 -180z"/>
<path d="M7015 8010 l-180 -180 180 -180 c99 -99 184 -180 190 -180 6 0 91 81
190 180 l180 180 -180 180 c-99 99 -184 180 -190 180 -6 0 -91 -81 -190 -180z"/>
<path d="M7805 8010 l-180 -180 183 -183 182 -182 182 182 183 183 -180 180
c-99 99 -182 180 -185 180 -3 0 -86 -81 -185 -180z"/>
<path d="M3495 7620 l-180 -180 183 -183 182 -182 182 182 183 183 -180 180
c-99 99 -182 180 -185 180 -3 0 -86 -81 -185 -180z"/>
<path d="M4275 7620 l-180 -180 185 -185 185 -185 182 182 183 183 -182 182
c-101 101 -185 183 -188 183 -3 0 -86 -81 -185 -180z"/>
<path d="M7412 7617 l-182 -182 183 -183 182 -182 185 185 185 185 -180 180
c-99 99 -182 180 -185 180 -3 0 -87 -82 -188 -183z"/>
<path d="M8195 7620 l-180 -180 183 -183 182 -182 182 182 183 183 -180 180
c-99 99 -182 180 -185 180 -3 0 -86 -81 -185 -180z"/>
<path d="M3102 7227 l-182 -182 183 -183 182 -182 185 185 185 185 -180 180
c-99 99 -182 180 -185 180 -3 0 -87 -82 -188 -183z"/>
<path d="M3885 7230 l-180 -180 185 -185 185 -185 182 182 183 183 -182 182
c-101 101 -185 183 -188 183 -3 0 -86 -81 -185 -180z"/>
<path d="M7807 7232 c-97 -97 -177 -182 -177 -187 0 -6 80 -90 178 -188 l177
-177 185 185 185 185 -180 180 c-99 99 -182 180 -185 180 -3 0 -85 -80 -183
-178z"/>
<path d="M8585 7230 l-180 -180 185 -185 185 -185 182 182 183 183 -182 182
c-101 101 -185 183 -188 183 -3 0 -86 -81 -185 -180z"/>
<path d="M3497 6842 c-97 -97 -177 -182 -177 -187 0 -6 81 -91 180 -190 l180
-180 180 180 c99 99 180 184 180 190 0 10 -350 365 -360 365 -3 0 -85 -80
-183 -178z"/>
<path d="M4282 6837 l-182 -182 183 -183 182 -182 183 183 182 182 -183 183
-182 182 -183 -183z"/>
<path d="M7412 6837 l-182 -182 183 -183 182 -182 183 183 182 182 -183 183
-182 182 -183 -183z"/>
<path d="M8197 6842 c-97 -97 -177 -182 -177 -187 0 -6 81 -91 180 -190 l180
-180 180 180 c99 99 180 184 180 190 0 10 -350 365 -360 365 -3 0 -85 -80
-183 -178z"/>
<path d="M3102 6447 l-182 -182 185 -185 185 -185 182 183 183 182 -185 185
-185 185 -183 -183z"/>
<path d="M3890 6445 l-185 -185 183 -182 182 -183 185 185 185 185 -183 183
-182 182 -185 -185z"/>
<path d="M7807 6452 c-97 -97 -177 -182 -177 -187 0 -6 81 -91 180 -190 l180
-180 183 183 182 182 -185 185 -185 185 -178 -178z"/>
<path d="M8590 6445 l-185 -185 183 -182 182 -183 185 185 185 185 -183 183
-182 182 -185 -185z"/>
<path d="M3495 6050 l-180 -180 183 -183 182 -182 182 182 183 183 -180 180
c-99 99 -182 180 -185 180 -3 0 -86 -81 -185 -180z"/>
<path d="M8195 6050 l-180 -180 183 -183 182 -182 182 182 183 183 -180 180
c-99 99 -182 180 -185 180 -3 0 -86 -81 -185 -180z"/>
<path d="M3105 5660 l-180 -180 183 -183 182 -182 182 182 183 183 -180 180
c-99 99 -182 180 -185 180 -3 0 -86 -81 -185 -180z"/>
<path d="M3885 5660 l-180 -180 183 -183 182 -182 182 182 183 183 -180 180
c-99 99 -182 180 -185 180 -3 0 -86 -81 -185 -180z"/>
<path d="M7805 5660 l-180 -180 183 -183 182 -182 182 182 183 183 -180 180
c-99 99 -182 180 -185 180 -3 0 -86 -81 -185 -180z"/>
<path d="M8585 5660 l-180 -180 183 -183 182 -182 182 182 183 183 -180 180
c-99 99 -182 180 -185 180 -3 0 -86 -81 -185 -180z"/>
<path d="M3495 5270 l-180 -180 183 -183 182 -182 182 182 183 183 -180 180
c-99 99 -182 180 -185 180 -3 0 -86 -81 -185 -180z"/>
<path d="M8195 5270 l-180 -180 183 -183 182 -182 182 182 183 183 -180 180
c-99 99 -182 180 -185 180 -3 0 -86 -81 -185 -180z"/>
<path d="M3102 4877 l-182 -182 183 -183 182 -182 185 185 185 185 -180 180
c-99 99 -182 180 -185 180 -3 0 -87 -82 -188 -183z"/>
<path d="M3497 4492 c-97 -97 -177 -182 -177 -187 0 -6 81 -91 180 -190 l180
-180 180 180 c99 99 180 184 180 190 0 10 -350 365 -360 365 -3 0 -85 -80
-183 -178z"/>
<path d="M5847 4492 c-97 -97 -177 -182 -177 -187 0 -6 81 -91 180 -190 l180
-180 180 180 c99 99 180 184 180 190 0 10 -350 365 -360 365 -3 0 -85 -80
-183 -178z"/>
<path d="M8197 4492 c-97 -97 -177 -182 -177 -187 0 -6 81 -91 180 -190 l180
-180 180 180 c99 99 180 184 180 190 0 10 -350 365 -360 365 -3 0 -85 -80
-183 -178z"/>
<path d="M5457 4102 c-97 -97 -177 -182 -177 -187 0 -6 81 -91 180 -190 l180
-180 183 183 182 182 -185 185 -185 185 -178 -178z"/>
<path d="M6240 4095 l-185 -185 183 -182 182 -183 185 185 185 185 -183 183
-182 182 -185 -185z"/>
<path d="M6630 3705 l-185 -185 183 -182 182 -183 185 185 185 185 -183 183
-182 182 -185 -185z"/>
<path d="M5057 3702 l-177 -177 185 -185 185 -185 182 183 183 182 -180 180
c-99 99 -184 180 -190 180 -6 0 -90 -80 -188 -178z"/>
<path d="M5845 3700 l-180 -180 183 -183 182 -182 182 182 183 183 -180 180
c-99 99 -182 180 -185 180 -3 0 -86 -81 -185 -180z"/>
<path d="M5455 3310 l-180 -180 183 -183 182 -182 182 182 183 183 -180 180
c-99 99 -182 180 -185 180 -3 0 -86 -81 -185 -180z"/>
<path d="M6235 3310 l-180 -180 183 -183 182 -182 182 182 183 183 -180 180
c-99 99 -182 180 -185 180 -3 0 -86 -81 -185 -180z"/>
<path d="M8495 2935 c-5 -2 -22 -6 -37 -9 -37 -8 -98 -63 -114 -103 -20 -47
-17 -127 5 -172 22 -42 80 -97 118 -112 38 -14 121 -11 156 7 45 23 66 44 88
86 55 107 -14 257 -135 293 -49 15 -62 16 -81 10z"/>
<path d="M7380 2174 c-36 -14 -67 -27 -69 -29 -2 -2 29 -40 69 -85 40 -44 74
-79 75 -78 2 2 6 51 10 111 8 123 13 118 -85 81z"/>
</g>
</svg>
