<svg xmlns="http://www.w3.org/2000/svg" viewBox="0 0 64 64" role="img" aria-labelledby="title">
  <title id="title">Webex</title>
  <rect width="64" height="64" rx="14" fill="#111111"/>
  <path d="M19 24c4.8-6.1 14.4-7 20.6-1.9 5.8 4.8 6.7 13.4 2.1 19.2-1.1 1.4-3.2 1.5-4.4.1-1-1.2-.9-2.9.1-4.1 2.6-3.4 2-8.3-1.3-11.1-3.7-3-9.2-2.5-12.1 1.2-1 1.3-2.9 1.5-4.2.5-1.2-1-1.5-2.8-.8-3.9Z" fill="#00D5A0"/>
  <path d="M45 40c-4.8 6.1-14.4 7-20.6 1.9-5.8-4.8-6.7-13.4-2.1-19.2 1.1-1.4 3.2-1.5 4.4-.1 1 1.2.9 2.9-.1 4.1-2.6 3.4-2 8.3 1.3 11.1 3.7 3 9.2 2.5 12.1-1.2 1-1.3 2.9-1.5 4.2-.5 1.2 1 1.5 2.8.8 3.9Z" fill="#00A3E0"/>
</svg>
