<?xml version="1.0" standalone="no"?>
<!DOCTYPE svg PUBLIC "-//W3C//DTD SVG 20010904//EN"
 "http://www.w3.org/TR/2001/REC-SVG-20010904/DTD/svg10.dtd">
<svg version="1.0" xmlns="http://www.w3.org/2000/svg"
 width="972.000000pt" height="374.000000pt" viewBox="0 0 972.000000 374.000000"
 preserveAspectRatio="xMidYMid meet">

<g transform="translate(0.000000,374.000000) scale(0.100000,-0.100000)"
fill="#000000" stroke="none">
<path d="M604 3665 c13 -88 19 -1619 7 -1750 -17 -200 7 -364 61 -422 l21 -22
41 32 c140 110 277 296 359 487 97 227 115 573 42 820 -52 177 -124 332 -214
466 -64 95 -73 106 -184 227 -40 43 -87 106 -105 140 -33 62 -33 62 -28 22z"/>
<path d="M2895 3483 c-155 -24 -314 -90 -431 -179 -271 -203 -406 -465 -407
-789 0 -135 11 -209 45 -310 110 -325 392 -582 723 -656 80 -19 370 -19 450 0
112 25 274 96 332 145 17 14 35 26 40 26 12 0 186 177 217 220 126 180 179
349 179 575 -1 265 -86 478 -269 667 -122 127 -291 233 -424 268 -25 6 -61 16
-80 22 -37 10 -325 19 -375 11z m-129 -598 c131 -39 221 -166 239 -338 l7 -67
-282 0 -282 0 7 -52 c7 -50 32 -106 59 -133 7 -7 31 -22 54 -34 47 -24 153
-29 199 -9 37 16 93 76 93 99 0 17 8 19 71 19 64 0 70 -2 64 -17 -4 -10 -10
-27 -13 -38 -15 -55 -86 -131 -152 -162 -142 -68 -341 -26 -433 91 -79 99
-104 286 -56 422 62 176 248 272 425 219z m521 -86 c37 -56 79 -115 92 -131
l24 -30 24 29 c14 15 32 40 41 56 9 15 20 27 24 27 4 0 8 5 8 10 0 6 21 40 48
75 l47 64 78 1 c42 0 77 -4 77 -9 0 -9 -61 -92 -97 -131 -13 -14 -23 -28 -23
-32 0 -3 -6 -13 -12 -20 -24 -24 -105 -133 -116 -153 -9 -17 -3 -30 34 -80 24
-33 47 -64 52 -70 4 -5 27 -37 50 -70 23 -33 64 -91 92 -130 27 -38 50 -73 50
-77 0 -5 -36 -8 -79 -8 l-79 0 -38 53 c-22 28 -53 75 -71 102 -18 28 -36 55
-41 61 -5 5 -22 29 -37 52 -15 23 -30 40 -34 38 -4 -3 -24 -31 -46 -63 -22
-32 -48 -67 -57 -77 -10 -11 -18 -23 -18 -28 0 -4 -21 -37 -47 -73 l-48 -65
-77 0 c-43 0 -78 2 -78 5 0 6 170 245 187 263 7 7 20 26 30 42 9 17 21 30 25
30 4 0 8 5 8 12 0 6 10 22 22 35 13 14 18 27 13 31 -6 4 -33 39 -61 78 -28 38
-58 79 -67 90 -30 36 -137 184 -137 189 0 3 38 5 85 5 l84 0 68 -101z"/>
<path d="M2566 2760 c-21 -11 -44 -24 -50 -29 -16 -14 -53 -88 -60 -123 l-6
-28 210 0 210 0 -6 28 c-12 56 -59 136 -75 127 -5 -4 -9 -2 -9 3 0 4 -16 16
-35 25 -48 23 -130 21 -179 -3z"/>
<path d="M8860 2961 c0 -104 -3 -196 -6 -205 -5 -14 -11 -13 -45 4 -49 25 -66
25 -109 -2 -19 -11 -55 -32 -80 -46 -25 -13 -66 -38 -92 -54 l-48 -30 0 -153
c0 -110 3 -155 13 -163 6 -5 68 -42 137 -82 l125 -72 30 17 c17 9 55 31 85 48
30 16 71 40 90 52 19 12 43 24 53 28 16 6 17 33 17 381 l0 374 -22 14 c-35 22
-136 78 -142 78 -4 0 -6 -85 -6 -189z m-55 -403 c41 -21 45 -26 46 -65 1 -24
2 -49 3 -55 1 -7 -21 -27 -47 -45 l-48 -32 -47 28 c-47 27 -47 27 -50 87 l-2
59 42 22 c54 27 50 27 103 1z"/>
<path d="M127 3053 c-3 -10 -13 -37 -21 -59 -55 -150 -86 -339 -86 -523 0
-203 34 -350 121 -525 85 -170 230 -351 379 -470 l34 -28 8 28 c17 61 28 190
19 219 l-9 30 -1 -30 -1 -29 -16 23 c-12 16 -13 25 -6 30 8 4 0 31 -23 78 -19
40 -31 79 -28 91 2 11 0 23 -6 26 -7 5 -11 -4 -11 -24 0 -19 -4 -29 -10 -25
-6 4 -8 10 -5 15 3 5 -1 24 -9 42 -30 73 -39 110 -26 118 9 6 8 14 -4 37 -8
17 -13 39 -10 50 6 21 -12 41 -24 28 -4 -4 -1 -10 6 -12 19 -7 14 -23 -8 -23
-17 0 -20 7 -20 40 0 29 4 40 15 40 21 0 19 13 -5 35 -15 13 -20 15 -20 4 0
-9 -7 -6 -22 8 -12 13 -19 26 -14 30 4 4 11 1 16 -7 16 -26 24 0 11 33 -7 18
-14 46 -15 62 0 17 -6 29 -11 28 -6 -1 -9 12 -7 30 3 23 -2 38 -17 51 -14 13
-21 15 -21 6 0 -9 -6 -8 -20 5 -11 10 -20 22 -20 27 0 4 9 8 20 8 24 0 24 3 6
39 -8 15 -13 37 -10 48 3 12 1 24 -6 28 -14 9 -28 -3 -15 -13 6 -4 10 -21 10
-39 0 -52 -27 -15 -33 46 -4 42 -2 51 12 51 22 0 20 13 -4 35 -15 13 -20 15
-20 4 0 -9 -7 -6 -22 9 -12 12 -19 25 -14 29 4 4 11 1 16 -7 16 -26 24 0 11
33 -7 18 -14 40 -15 49 -3 28 -16 34 -16 8 0 -36 -14 -14 -26 42 -10 45 -10
49 5 45 11 -3 17 2 18 14 2 21 -13 26 -19 7 -3 -7 -9 1 -15 18 -10 27 -9 30
10 30 11 -1 22 6 25 14 4 13 3 13 -10 2 -13 -10 -18 -10 -24 -1 -5 8 -3 9 6 4
9 -6 11 -4 5 5 -4 7 -2 16 6 21 10 6 11 11 3 19 -8 8 -13 6 -17 -7z m53 -263
c0 -5 -2 -10 -4 -10 -3 0 -8 5 -11 10 -3 6 -1 10 4 10 6 0 11 -4 11 -10z m120
-356 c0 -14 -4 -23 -10 -19 -5 3 -10 15 -10 26 0 10 5 19 10 19 6 0 10 -12 10
-26z m20 -84 c0 -5 -2 -10 -4 -10 -3 0 -8 5 -11 10 -3 6 -1 10 4 10 6 0 11 -4
11 -10z m20 -40 c0 -5 -2 -10 -4 -10 -3 0 -8 5 -11 10 -3 6 -1 10 4 10 6 0 11
-4 11 -10z m160 -480 c0 -5 -2 -10 -4 -10 -3 0 -8 5 -11 10 -3 6 -1 10 4 10 6
0 11 -4 11 -10z m67 -222 c-3 -7 -5 -2 -5 12 0 14 2 19 5 13 2 -7 2 -19 0 -25z
m-3 -52 c-8 -20 -31 -27 -31 -10 0 7 4 11 8 8 4 -2 10 0 14 6 9 15 15 12 9 -4z"/>
<path d="M160 2890 c0 -5 5 -10 11 -10 5 0 7 5 4 10 -3 6 -8 10 -11 10 -2 0
-4 -4 -4 -10z"/>
<path d="M7285 2736 c-50 -28 -108 -61 -128 -73 l-37 -22 0 -206 c0 -113 3
-205 6 -205 7 0 80 41 133 74 l40 26 3 106 3 106 44 24 44 23 41 -21 c23 -11
44 -26 48 -32 4 -6 8 -56 8 -112 0 -99 0 -101 27 -115 15 -8 52 -29 82 -46 30
-18 58 -33 63 -33 4 0 8 92 8 204 l0 204 -50 31 c-28 17 -52 31 -53 31 -2 0
-39 20 -83 45 -43 25 -85 45 -94 44 -8 -1 -56 -24 -105 -53z"/>
<path d="M9390 2764 c-25 -14 -67 -38 -95 -53 -148 -82 -135 -59 -135 -230 0
-80 4 -151 8 -156 10 -16 259 -155 274 -154 21 1 161 83 161 94 0 9 -43 37
-173 108 -83 45 -90 53 -90 108 0 46 2 50 40 74 49 31 64 31 115 2 37 -21 40
-26 43 -70 2 -26 5 -47 7 -47 2 0 41 22 87 48 l83 48 3 47 3 47 -55 35 c-30
19 -57 35 -59 35 -3 0 -34 17 -68 39 -89 53 -97 55 -149 25z"/>
<path d="M7804 2588 c0 -35 1 -40 3 -15 2 20 8 35 13 32 4 -3 6 4 3 15 -9 36
-18 21 -19 -32z"/>
<path d="M8330 2619 c0 -19 -71 -130 -80 -124 -4 3 -8 -26 -8 -65 0 -42 4 -70
10 -70 7 0 7 -4 0 -13 -6 -7 -10 -29 -9 -49 2 -28 5 -34 14 -26 7 6 10 15 6
22 -4 7 -2 7 7 -1 10 -9 19 -8 39 5 14 9 29 21 33 27 12 16 10 305 -2 305 -5
0 -10 -5 -10 -11z"/>
<path d="M7865 2423 c-17 -32 -36 -63 -42 -71 -23 -25 -17 -34 50 -71 20 -12
54 -31 75 -42 140 -81 142 -81 115 -41 -24 34 -128 218 -144 255 -7 15 -15 27
-18 27 -4 0 -20 -26 -36 -57z"/>
<path d="M591 1724 c0 -11 3 -14 6 -6 3 7 2 16 -1 19 -3 4 -6 -2 -5 -13z"/>
<path d="M63 915 c-3 -9 -3 -19 1 -22 3 -4 6 1 6 10 0 14 19 17 148 20 l147 3
-148 2 c-125 2 -149 0 -154 -13z"/>
<path d="M917 923 c-3 -5 41 -7 96 -5 184 4 204 8 55 10 -81 1 -149 -1 -151
-5z"/>
<path d="M2740 886 c0 -31 2 -34 40 -39 74 -10 70 10 70 -376 0 -267 -3 -351
-13 -365 -7 -9 -32 -20 -55 -23 -40 -5 -42 -7 -42 -39 l0 -34 374 0 374 0 11
48 c6 26 21 86 34 135 l24 87 -42 0 c-38 0 -44 -3 -56 -32 -7 -18 -26 -47 -43
-65 -51 -59 -76 -67 -233 -71 l-142 -4 -6 33 c-3 19 -5 92 -3 164 l3 130 123
0 c116 0 125 -1 142 -23 10 -12 21 -40 25 -62 7 -39 8 -40 46 -40 l39 0 0 175
0 175 -39 0 c-38 0 -39 -1 -46 -41 -12 -72 -27 -79 -170 -79 l-125 0 0 140 0
140 145 0 c90 0 154 -4 170 -12 26 -12 55 -64 55 -98 0 -14 10 -19 40 -22 l40
-4 0 118 0 118 -370 0 -370 0 0 -34z"/>
<path d="M360 901 c0 -6 4 -13 10 -16 6 -3 7 1 4 9 -7 18 -14 21 -14 7z"/>
<path d="M921 614 c0 -11 3 -14 6 -6 3 7 2 16 -1 19 -3 4 -6 -2 -5 -13z"/>
<path d="M922 550 c0 -14 2 -19 5 -12 2 6 2 18 0 25 -3 6 -5 1 -5 -13z"/>
<path d="M924 320 c0 -113 2 -159 3 -102 2 56 2 148 0 205 -1 56 -3 10 -3
-103z"/>
<path d="M1092 250 c0 -19 2 -27 5 -17 2 9 2 25 0 35 -3 9 -5 1 -5 -18z"/>
<path d="M1100 106 c0 -2 7 -9 15 -16 9 -7 15 -8 15 -2 0 5 -7 12 -15 16 -8 3
-15 4 -15 2z"/>
<path d="M67 83 c-4 -3 -7 -11 -7 -17 0 -7 3 -7 8 0 4 7 16 14 27 17 19 5 19
5 -1 6 -11 0 -24 -2 -27 -6z"/>
<path d="M370 85 c0 -7 30 -13 34 -7 3 4 -4 9 -15 9 -10 1 -19 0 -19 -2z"/>
<path d="M818 83 c6 -2 18 -2 25 0 6 3 1 5 -13 5 -14 0 -19 -2 -12 -5z"/>
<path d="M1150 86 c0 -8 51 -13 56 -5 3 5 -9 9 -25 9 -17 0 -31 -2 -31 -4z"/>
<path d="M615 30 c-3 -5 -1 -10 4 -10 6 0 11 5 11 10 0 6 -2 10 -4 10 -3 0 -8
-4 -11 -10z"/>
</g>
</svg>
