<?xml version="1.0" encoding="UTF-8"?>
<svg xmlns="http://www.w3.org/2000/svg" xmlns:xlink="http://www.w3.org/1999/xlink" width="151pt" height="99pt" viewBox="0 0 151 99" version="1.1">
<g id="surface1">
<path style=" stroke:none;fill-rule:evenodd;fill:rgb(21.199036%,52.89917%,36.499023%);fill-opacity:1;" d="M 24.519531 71.59375 L 18.144531 59.257813 L 11.246094 59.257813 L 11.246094 78.566406 L 16.945313 78.566406 L 16.945313 65.894531 L 23.804688 78.566406 L 30.140625 78.566406 L 30.140625 59.257813 L 24.59375 59.257813 L 24.519531 71.59375 "/>
<path style=" stroke:none;fill-rule:evenodd;fill:rgb(21.199036%,52.89917%,36.499023%);fill-opacity:1;" d="M 134.125 71.59375 L 127.75 59.257813 L 120.851563 59.257813 L 120.851563 78.566406 L 126.550781 78.566406 L 126.550781 65.894531 L 133.410156 78.566406 L 139.746094 78.566406 L 139.746094 59.257813 L 134.199219 59.257813 L 134.125 71.59375 "/>
<path style=" stroke:none;fill-rule:evenodd;fill:rgb(21.199036%,52.89917%,36.499023%);fill-opacity:1;" d="M 49.828125 59.238281 L 33.746094 59.238281 L 33.746094 78.582031 L 49.980469 78.582031 L 49.980469 74.757813 L 39.707031 74.757813 L 39.707031 70.933594 L 49.265625 70.933594 L 49.265625 67 L 39.707031 67 L 39.707031 62.910156 L 49.828125 62.910156 L 49.828125 59.238281 "/>
<path style=" stroke:none;fill-rule:evenodd;fill:rgb(21.199036%,52.89917%,36.499023%);fill-opacity:1;" d="M 55.597656 78.59375 L 61.859375 78.59375 L 64.371094 65.324219 L 67.332031 78.59375 L 73.332031 78.59375 L 77.753906 59.25 L 72.246094 59.25 L 69.957031 73.417969 L 66.882813 59.25 L 61.933594 59.25 L 59.121094 73.417969 L 56.796875 59.25 L 50.988281 59.25 L 55.597656 78.59375 "/>
<path style=" stroke:none;fill-rule:evenodd;fill:rgb(21.199036%,52.89917%,36.499023%);fill-opacity:1;" d="M 90.058594 71.417969 L 93.265625 71.417969 C 93.03125 75.429688 90.90625 75.429688 89.867188 75.65625 C 86.851563 75.65625 85.308594 74.269531 85.308594 69.058594 C 85.308594 64.074219 86.003906 62.085938 89.171875 62.085938 C 91.835938 62.085938 92.492188 64.523438 92.761719 65.273438 L 98.867188 65.273438 C 98.710938 62.386719 96.855469 58.335938 89.554688 58.523438 C 82.023438 58.261719 79.089844 63.171875 79.089844 68.984375 C 79.164063 76.59375 83.761719 79.105469 88.898438 79.105469 C 93.457031 79.105469 93.960938 78.128906 95.542969 76.667969 L 95.96875 78.582031 L 98.941406 78.582031 L 98.941406 68.15625 L 90.058594 68.15625 L 90.058594 71.417969 "/>
<path style=" stroke:none;fill-rule:evenodd;fill:rgb(21.199036%,52.89917%,36.499023%);fill-opacity:1;" d="M 118.078125 59.238281 L 101.996094 59.238281 L 101.996094 78.582031 L 118.230469 78.582031 L 118.230469 74.757813 L 107.957031 74.757813 L 107.957031 70.933594 L 117.515625 70.933594 L 117.515625 67 L 107.957031 67 L 107.957031 62.910156 L 118.078125 62.910156 L 118.078125 59.238281 "/>
<path style=" stroke:none;fill-rule:evenodd;fill:rgb(96.099854%,50.999451%,12.199402%);fill-opacity:1;" d="M 75.5 0.242188 C 90.167969 0.242188 102.132813 12.207031 102.132813 26.871094 C 102.132813 41.542969 90.167969 53.507813 75.5 53.507813 C 60.832031 53.507813 48.867188 41.542969 48.867188 26.871094 C 48.867188 12.207031 60.832031 0.242188 75.5 0.242188 "/>
<path style=" stroke:none;fill-rule:evenodd;fill:rgb(100%,100%,100%);fill-opacity:1;" d="M 80.808594 18.59375 C 82.382813 18.480469 83.757813 19.671875 83.871094 21.242188 C 83.984375 22.820313 82.792969 24.195313 81.222656 24.308594 C 79.648438 24.421875 78.273438 23.230469 78.160156 21.65625 C 78.046875 20.082031 79.234375 18.707031 80.808594 18.59375 "/>
<path style=" stroke:none;fill-rule:evenodd;fill:rgb(100%,100%,100%);fill-opacity:1;" d="M 85.105469 14.746094 C 86.382813 14.652344 87.507813 15.621094 87.597656 16.902344 C 87.695313 18.1875 86.722656 19.308594 85.4375 19.398438 C 84.160156 19.492188 83.039063 18.523438 82.949219 17.238281 C 82.851563 15.957031 83.824219 14.835938 85.105469 14.746094 "/>
<path style=" stroke:none;fill-rule:evenodd;fill:rgb(100%,100%,100%);fill-opacity:1;" d="M 88.90625 11.484375 C 89.894531 11.414063 90.761719 12.160156 90.835938 13.152344 C 90.90625 14.140625 90.160156 15.007813 89.164063 15.078125 C 88.175781 15.152344 87.316406 14.402344 87.238281 13.410156 C 87.167969 12.421875 87.917969 11.554688 88.90625 11.484375 "/>
<path style=" stroke:none;fill-rule:evenodd;fill:rgb(100%,100%,100%);fill-opacity:1;" d="M 91.554688 9.652344 C 92.136719 9.609375 92.648438 10.050781 92.691406 10.632813 C 92.730469 11.21875 92.289063 11.726563 91.707031 11.765625 C 91.125 11.808594 90.617188 11.367188 90.578125 10.789063 C 90.535156 10.203125 90.976563 9.695313 91.554688 9.652344 "/>
<path style=" stroke:none;fill-rule:evenodd;fill:rgb(100%,100%,100%);fill-opacity:1;" d="M 93.539063 8.304688 C 93.769531 8.289063 93.976563 8.464844 93.992188 8.699219 C 94.007813 8.929688 93.832031 9.132813 93.597656 9.152344 C 93.371094 9.167969 93.164063 8.988281 93.148438 8.757813 C 93.132813 8.523438 93.3125 8.324219 93.539063 8.304688 "/>
<path style=" stroke:none;fill-rule:evenodd;fill:rgb(100%,100%,100%);fill-opacity:1;" d="M 67.070313 32.34375 C 67 33.921875 68.226563 35.261719 69.800781 35.335938 C 71.378906 35.40625 72.722656 34.179688 72.792969 32.601563 C 72.863281 31.03125 71.636719 29.683594 70.0625 29.613281 C 68.484375 29.542969 67.140625 30.769531 67.070313 32.34375 "/>
<path style=" stroke:none;fill-rule:evenodd;fill:rgb(100%,100%,100%);fill-opacity:1;" d="M 63.101563 36.804688 C 63.046875 38.089844 64.039063 39.183594 65.324219 39.242188 C 66.609375 39.300781 67.703125 38.296875 67.761719 37.015625 C 67.820313 35.734375 66.820313 34.640625 65.535156 34.582031 C 64.25 34.527344 63.15625 35.523438 63.101563 36.804688 "/>
<path style=" stroke:none;fill-rule:evenodd;fill:rgb(100%,100%,100%);fill-opacity:1;" d="M 60.117188 40.519531 C 60.078125 41.511719 60.84375 42.351563 61.835938 42.398438 C 62.828125 42.445313 63.675781 41.671875 63.722656 40.679688 C 63.765625 39.691406 62.992188 38.84375 62 38.800781 C 61.007813 38.753906 60.160156 39.527344 60.117188 40.519531 "/>
<path style=" stroke:none;fill-rule:evenodd;fill:rgb(100%,100%,100%);fill-opacity:1;" d="M 58.1875 43.28125 C 58.164063 43.867188 58.613281 44.363281 59.195313 44.386719 C 59.78125 44.417969 60.28125 43.960938 60.304688 43.378906 C 60.332031 42.792969 59.875 42.296875 59.292969 42.273438 C 58.707031 42.242188 58.210938 42.699219 58.1875 43.28125 "/>
<path style=" stroke:none;fill-rule:evenodd;fill:rgb(100%,100%,100%);fill-opacity:1;" d="M 57.007813 45.125 C 57 45.359375 57.179688 45.554688 57.410156 45.566406 C 57.644531 45.578125 57.839844 45.398438 57.855469 45.164063 C 57.863281 44.933594 57.683594 44.734375 57.449219 44.722656 C 57.214844 44.714844 57.015625 44.894531 57.007813 45.125 "/>
<path style=" stroke:none;fill-rule:evenodd;fill:rgb(100%,100%,100%);fill-opacity:1;" d="M 75.269531 13.640625 C 76.601563 13.542969 77.769531 14.550781 77.863281 15.882813 C 77.964844 17.21875 76.957031 18.386719 75.621094 18.480469 C 74.289063 18.578125 73.121094 17.570313 73.027344 16.234375 C 72.925781 14.902344 73.941406 13.734375 75.269531 13.640625 "/>
<path style=" stroke:none;fill-rule:evenodd;fill:rgb(100%,100%,100%);fill-opacity:1;" d="M 79.847656 9.792969 C 80.792969 9.726563 81.617188 10.4375 81.683594 11.378906 C 81.75 12.328125 81.039063 13.148438 80.09375 13.21875 C 79.15625 13.285156 78.332031 12.574219 78.265625 11.628906 C 78.195313 10.6875 78.90625 9.863281 79.847656 9.792969 "/>
<path style=" stroke:none;fill-rule:evenodd;fill:rgb(100%,100%,100%);fill-opacity:1;" d="M 90.644531 20.703125 C 91.585938 20.636719 92.410156 21.347656 92.476563 22.289063 C 92.542969 23.234375 91.832031 24.058594 90.890625 24.128906 C 89.949219 24.195313 89.125 23.480469 89.058594 22.539063 C 88.988281 21.597656 89.699219 20.773438 90.644531 20.703125 "/>
<path style=" stroke:none;fill-rule:evenodd;fill:rgb(100%,100%,100%);fill-opacity:1;" d="M 83.300781 6.753906 C 83.960938 6.710938 84.542969 7.207031 84.585938 7.863281 C 84.636719 8.527344 84.136719 9.101563 83.472656 9.152344 C 82.820313 9.199219 82.238281 8.699219 82.191406 8.039063 C 82.144531 7.378906 82.644531 6.800781 83.300781 6.753906 "/>
<path style=" stroke:none;fill-rule:evenodd;fill:rgb(100%,100%,100%);fill-opacity:1;" d="M 79.039063 26.898438 C 79.171875 28.878906 77.667969 30.605469 75.6875 30.738281 C 73.703125 30.871094 71.976563 29.363281 71.84375 27.382813 C 71.707031 25.40625 73.21875 23.679688 75.199219 23.542969 C 77.179688 23.40625 78.90625 24.917969 79.039063 26.898438 "/>
<path style=" stroke:none;fill-rule:evenodd;fill:rgb(100%,100%,100%);fill-opacity:1;" d="M 76.542969 7.09375 C 76.578125 7.671875 76.140625 8.175781 75.5625 8.214844 C 74.980469 8.257813 74.472656 7.8125 74.4375 7.234375 C 74.398438 6.65625 74.835938 6.148438 75.421875 6.113281 C 76 6.070313 76.503906 6.511719 76.542969 7.09375 "/>
<path style=" stroke:none;fill-rule:evenodd;fill:rgb(100%,100%,100%);fill-opacity:1;" d="M 96.226563 27.007813 C 96.265625 27.585938 95.828125 28.089844 95.246094 28.128906 C 94.667969 28.167969 94.160156 27.726563 94.121094 27.148438 C 94.082031 26.566406 94.519531 26.0625 95.105469 26.027344 C 95.683594 25.984375 96.1875 26.425781 96.226563 27.007813 "/>
<path style=" stroke:none;fill-rule:evenodd;fill:rgb(100%,100%,100%);fill-opacity:1;" d="M 95.40625 18.824219 C 95.441406 19.402344 95.003906 19.90625 94.425781 19.945313 C 93.84375 19.988281 93.335938 19.546875 93.300781 18.964844 C 93.261719 18.386719 93.699219 17.882813 94.28125 17.84375 C 94.863281 17.800781 95.367188 18.242188 95.40625 18.824219 "/>
<path style=" stroke:none;fill-rule:evenodd;fill:rgb(100%,100%,100%);fill-opacity:1;" d="M 72.636719 11.417969 C 72.695313 12.335938 72 13.140625 71.082031 13.203125 C 70.160156 13.261719 69.355469 12.558594 69.296875 11.644531 C 69.234375 10.726563 69.933594 9.917969 70.851563 9.863281 C 71.777344 9.800781 72.582031 10.5 72.636719 11.417969 "/>
<path style=" stroke:none;fill-rule:evenodd;fill:rgb(100%,100%,100%);fill-opacity:1;" d="M 61.894531 22.429688 C 61.953125 23.347656 61.257813 24.152344 60.339844 24.214844 C 59.417969 24.273438 58.613281 23.574219 58.554688 22.65625 C 58.492188 21.738281 59.191406 20.933594 60.109375 20.875 C 61.03125 20.8125 61.835938 21.515625 61.894531 22.429688 "/>
<path style=" stroke:none;fill-rule:evenodd;fill:rgb(100%,100%,100%);fill-opacity:1;" d="M 68.703125 8.058594 C 68.742188 8.679688 68.273438 9.222656 67.652344 9.265625 C 67.027344 9.304688 66.488281 8.832031 66.445313 8.210938 C 66.402344 7.59375 66.875 7.050781 67.496094 7.007813 C 68.121094 6.96875 68.660156 7.4375 68.703125 8.058594 "/>
<path style=" stroke:none;fill-rule:evenodd;fill:rgb(100%,100%,100%);fill-opacity:1;" d="M 57.808594 18.8125 C 57.847656 19.433594 57.378906 19.972656 56.757813 20.015625 C 56.136719 20.058594 55.59375 19.582031 55.550781 18.960938 C 55.511719 18.34375 55.980469 17.800781 56.601563 17.761719 C 57.226563 17.71875 57.765625 18.191406 57.808594 18.8125 "/>
<path style=" stroke:none;fill-rule:evenodd;fill:rgb(100%,100%,100%);fill-opacity:1;" d="M 56.933594 26.992188 C 56.972656 27.613281 56.503906 28.15625 55.882813 28.199219 C 55.261719 28.242188 54.71875 27.765625 54.675781 27.144531 C 54.632813 26.527344 55.105469 25.984375 55.726563 25.941406 C 56.351563 25.902344 56.890625 26.371094 56.933594 26.992188 "/>
<path style=" stroke:none;fill-rule:evenodd;fill:rgb(100%,100%,100%);fill-opacity:1;" d="M 65.234375 5.273438 C 65.257813 5.621094 64.996094 5.921875 64.652344 5.945313 C 64.300781 5.96875 64 5.703125 63.976563 5.359375 C 63.957031 5.015625 64.21875 4.710938 64.5625 4.691406 C 64.910156 4.664063 65.214844 4.929688 65.234375 5.273438 "/>
<path style=" stroke:none;fill-rule:evenodd;fill:rgb(100%,100%,100%);fill-opacity:1;" d="M 72.535156 3.476563 C 72.554688 3.824219 72.296875 4.121094 71.949219 4.148438 C 71.601563 4.167969 71.300781 3.90625 71.273438 3.558594 C 71.253906 3.21875 71.515625 2.914063 71.863281 2.894531 C 72.207031 2.867188 72.511719 3.132813 72.535156 3.476563 "/>
<path style=" stroke:none;fill-rule:evenodd;fill:rgb(100%,100%,100%);fill-opacity:1;" d="M 99.355469 30.539063 C 99.375 30.882813 99.117188 31.183594 98.769531 31.210938 C 98.421875 31.230469 98.121094 30.96875 98.09375 30.621094 C 98.074219 30.28125 98.335938 29.976563 98.683594 29.953125 C 99.03125 29.929688 99.335938 30.191406 99.355469 30.539063 "/>
<path style=" stroke:none;fill-rule:evenodd;fill:rgb(100%,100%,100%);fill-opacity:1;" d="M 99.40625 23.441406 C 99.425781 23.785156 99.167969 24.085938 98.820313 24.113281 C 98.46875 24.132813 98.171875 23.871094 98.144531 23.523438 C 98.125 23.183594 98.386719 22.878906 98.734375 22.855469 C 99.078125 22.832031 99.382813 23.09375 99.40625 23.441406 "/>
<path style=" stroke:none;fill-rule:evenodd;fill:rgb(100%,100%,100%);fill-opacity:1;" d="M 97.761719 16.132813 C 97.78125 16.480469 97.523438 16.78125 97.175781 16.804688 C 96.828125 16.828125 96.527344 16.5625 96.503906 16.21875 C 96.480469 15.875 96.742188 15.570313 97.089844 15.550781 C 97.4375 15.523438 97.742188 15.789063 97.761719 16.132813 "/>
<path style=" stroke:none;fill-rule:evenodd;fill:rgb(100%,100%,100%);fill-opacity:1;" d="M 54.441406 16.132813 C 54.464844 16.480469 54.203125 16.78125 53.859375 16.804688 C 53.507813 16.828125 53.207031 16.5625 53.183594 16.21875 C 53.160156 15.875 53.425781 15.570313 53.769531 15.550781 C 54.117188 15.523438 54.421875 15.789063 54.441406 16.132813 "/>
<path style=" stroke:none;fill-rule:evenodd;fill:rgb(100%,100%,100%);fill-opacity:1;" d="M 52.644531 23.335938 C 52.664063 23.683594 52.40625 23.984375 52.0625 24.007813 C 51.710938 24.027344 51.410156 23.765625 51.386719 23.417969 C 51.363281 23.078125 51.628906 22.773438 51.972656 22.753906 C 52.320313 22.726563 52.625 22.988281 52.644531 23.335938 "/>
<path style=" stroke:none;fill-rule:evenodd;fill:rgb(100%,100%,100%);fill-opacity:1;" d="M 52.695313 30.539063 C 52.714844 30.882813 52.457031 31.183594 52.109375 31.210938 C 51.761719 31.230469 51.460938 30.96875 51.433594 30.621094 C 51.414063 30.28125 51.675781 29.976563 52.023438 29.953125 C 52.371094 29.929688 52.671875 30.191406 52.695313 30.539063 "/>
<path style=" stroke:none;fill-rule:evenodd;fill:rgb(100%,100%,100%);fill-opacity:1;" d="M 79.722656 3.527344 C 79.746094 3.871094 79.484375 4.171875 79.140625 4.199219 C 78.789063 4.21875 78.488281 3.957031 78.464844 3.609375 C 78.445313 3.269531 78.707031 2.964844 79.050781 2.941406 C 79.398438 2.917969 79.703125 3.179688 79.722656 3.527344 "/>
<path style=" stroke:none;fill-rule:evenodd;fill:rgb(100%,100%,100%);fill-opacity:1;" d="M 86.765625 5.175781 C 86.785156 5.519531 86.527344 5.820313 86.179688 5.84375 C 85.828125 5.867188 85.53125 5.605469 85.503906 5.257813 C 85.484375 4.914063 85.746094 4.609375 86.09375 4.589844 C 86.4375 4.566406 86.742188 4.828125 86.765625 5.175781 "/>
<path style=" stroke:none;fill-rule:evenodd;fill:rgb(100%,100%,100%);fill-opacity:1;" d="M 83.578125 32.34375 C 83.683594 33.917969 82.488281 35.289063 80.914063 35.390625 C 79.339844 35.5 77.96875 34.304688 77.863281 32.726563 C 77.753906 31.15625 78.953125 29.789063 80.53125 29.679688 C 82.101563 29.574219 83.472656 30.773438 83.578125 32.34375 "/>
<path style=" stroke:none;fill-rule:evenodd;fill:rgb(100%,100%,100%);fill-opacity:1;" d="M 77.910156 37.875 C 77.996094 39.222656 76.976563 40.40625 75.621094 40.492188 C 74.269531 40.585938 73.089844 39.558594 72.996094 38.203125 C 72.90625 36.855469 73.933594 35.675781 75.289063 35.585938 C 76.640625 35.492188 77.824219 36.523438 77.910156 37.875 "/>
<path style=" stroke:none;fill-rule:evenodd;fill:rgb(100%,100%,100%);fill-opacity:1;" d="M 76.601563 46.78125 C 76.640625 47.414063 76.164063 47.964844 75.527344 48.007813 C 74.894531 48.050781 74.34375 47.570313 74.296875 46.9375 C 74.257813 46.304688 74.738281 45.75 75.375 45.710938 C 76.007813 45.667969 76.558594 46.148438 76.601563 46.78125 "/>
<path style=" stroke:none;fill-rule:evenodd;fill:rgb(100%,100%,100%);fill-opacity:1;" d="M 81.570313 42.25 C 81.632813 43.175781 80.929688 43.980469 80.003906 44.042969 C 79.078125 44.105469 78.269531 43.398438 78.207031 42.472656 C 78.144531 41.550781 78.851563 40.742188 79.777344 40.679688 C 80.703125 40.617188 81.507813 41.324219 81.570313 42.25 "/>
<path style=" stroke:none;fill-rule:evenodd;fill:rgb(100%,100%,100%);fill-opacity:1;" d="M 84.472656 45.957031 C 84.511719 46.554688 84.0625 47.078125 83.457031 47.121094 C 82.855469 47.160156 82.332031 46.703125 82.292969 46.101563 C 82.25 45.507813 82.710938 44.980469 83.308594 44.9375 C 83.910156 44.902344 84.4375 45.355469 84.472656 45.957031 "/>
<path style=" stroke:none;fill-rule:evenodd;fill:rgb(100%,100%,100%);fill-opacity:1;" d="M 86.605469 48.71875 C 86.621094 49.027344 86.394531 49.292969 86.085938 49.3125 C 85.777344 49.335938 85.507813 49.101563 85.488281 48.792969 C 85.46875 48.488281 85.699219 48.214844 86.007813 48.195313 C 86.316406 48.175781 86.585938 48.40625 86.605469 48.71875 "/>
<path style=" stroke:none;fill-rule:evenodd;fill:rgb(100%,100%,100%);fill-opacity:1;" d="M 79.625 50.308594 C 79.640625 50.617188 79.410156 50.886719 79.101563 50.90625 C 78.792969 50.925781 78.527344 50.695313 78.507813 50.386719 C 78.484375 50.082031 78.71875 49.808594 79.027344 49.789063 C 79.335938 49.769531 79.601563 50 79.625 50.308594 "/>
<path style=" stroke:none;fill-rule:evenodd;fill:rgb(100%,100%,100%);fill-opacity:1;" d="M 72.289063 50.367188 C 72.308594 50.675781 72.074219 50.945313 71.765625 50.964844 C 71.457031 50.984375 71.191406 50.75 71.171875 50.445313 C 71.148438 50.140625 71.382813 49.867188 71.691406 49.847656 C 72 49.824219 72.273438 50.058594 72.289063 50.367188 "/>
<path style=" stroke:none;fill-rule:evenodd;fill:rgb(100%,100%,100%);fill-opacity:1;" d="M 65.183594 48.65625 C 65.207031 48.960938 64.972656 49.230469 64.664063 49.25 C 64.355469 49.273438 64.089844 49.039063 64.066406 48.730469 C 64.046875 48.425781 64.28125 48.152344 64.589844 48.132813 C 64.898438 48.113281 65.167969 48.34375 65.183594 48.65625 "/>
<path style=" stroke:none;fill-rule:evenodd;fill:rgb(100%,100%,100%);fill-opacity:1;" d="M 68.496094 45.957031 C 68.535156 46.554688 68.085938 47.078125 67.480469 47.121094 C 66.878906 47.160156 66.351563 46.703125 66.316406 46.101563 C 66.273438 45.507813 66.734375 44.980469 67.332031 44.9375 C 67.933594 44.902344 68.460938 45.355469 68.496094 45.957031 "/>
<path style=" stroke:none;fill-rule:evenodd;fill:rgb(100%,100%,100%);fill-opacity:1;" d="M 72.40625 42.316406 C 72.460938 43.175781 71.808594 43.925781 70.949219 43.984375 C 70.085938 44.042969 69.335938 43.386719 69.277344 42.523438 C 69.21875 41.664063 69.875 40.917969 70.738281 40.859375 C 71.601563 40.800781 72.351563 41.457031 72.40625 42.316406 "/>
<path style=" stroke:none;fill-rule:evenodd;fill:rgb(100%,100%,100%);fill-opacity:1;" d="M 87.585938 36.71875 C 87.667969 38 86.699219 39.117188 85.417969 39.203125 C 84.132813 39.292969 83.015625 38.316406 82.925781 37.03125 C 82.84375 35.75 83.820313 34.632813 85.101563 34.550781 C 86.382813 34.460938 87.503906 35.4375 87.585938 36.71875 "/>
<path style=" stroke:none;fill-rule:evenodd;fill:rgb(100%,100%,100%);fill-opacity:1;" d="M 90.578125 40.328125 C 90.640625 41.296875 89.90625 42.140625 88.933594 42.207031 C 87.960938 42.273438 87.113281 41.535156 87.046875 40.5625 C 86.984375 39.597656 87.722656 38.75 88.695313 38.683594 C 89.667969 38.617188 90.511719 39.355469 90.578125 40.328125 "/>
<path style=" stroke:none;fill-rule:evenodd;fill:rgb(100%,100%,100%);fill-opacity:1;" d="M 92.644531 43.136719 C 92.683594 43.714844 92.242188 44.226563 91.660156 44.265625 C 91.078125 44.304688 90.566406 43.863281 90.53125 43.277344 C 90.488281 42.699219 90.933594 42.191406 91.515625 42.152344 C 92.097656 42.109375 92.605469 42.558594 92.644531 43.136719 "/>
<path style=" stroke:none;fill-rule:evenodd;fill:rgb(100%,100%,100%);fill-opacity:1;" d="M 93.984375 45.070313 C 93.996094 45.300781 93.824219 45.507813 93.589844 45.523438 C 93.355469 45.539063 93.152344 45.359375 93.136719 45.125 C 93.125 44.898438 93.300781 44.695313 93.53125 44.679688 C 93.765625 44.664063 93.96875 44.84375 93.984375 45.070313 "/>
<path style=" stroke:none;fill-rule:evenodd;fill:rgb(100%,100%,100%);fill-opacity:1;" d="M 97.472656 37.789063 C 97.488281 38.019531 97.316406 38.222656 97.082031 38.242188 C 96.847656 38.257813 96.644531 38.078125 96.628906 37.84375 C 96.613281 37.617188 96.789063 37.414063 97.023438 37.398438 C 97.257813 37.382813 97.460938 37.5625 97.472656 37.789063 "/>
<path style=" stroke:none;fill-rule:evenodd;fill:rgb(100%,100%,100%);fill-opacity:1;" d="M 95.4375 35.027344 C 95.476563 35.605469 95.039063 36.109375 94.457031 36.148438 C 93.878906 36.183594 93.375 35.746094 93.335938 35.167969 C 93.296875 34.59375 93.738281 34.082031 94.316406 34.046875 C 94.898438 34.007813 95.402344 34.445313 95.4375 35.027344 "/>
<path style=" stroke:none;fill-rule:evenodd;fill:rgb(100%,100%,100%);fill-opacity:1;" d="M 92.210938 31.382813 C 92.265625 32.230469 91.621094 32.976563 90.769531 33.03125 C 89.914063 33.089844 89.171875 32.441406 89.113281 31.589844 C 89.054688 30.738281 89.703125 29.996094 90.558594 29.9375 C 91.410156 29.878906 92.15625 30.53125 92.210938 31.382813 "/>
<path style=" stroke:none;fill-rule:evenodd;fill:rgb(100%,100%,100%);fill-opacity:1;" d="M 88.304688 27.027344 C 88.378906 28.140625 87.53125 29.109375 86.417969 29.183594 C 85.304688 29.257813 84.332031 28.410156 84.257813 27.296875 C 84.183594 26.1875 85.03125 25.21875 86.148438 25.140625 C 87.261719 25.066406 88.226563 25.914063 88.304688 27.027344 "/>
<path style=" stroke:none;fill-rule:evenodd;fill:rgb(100%,100%,100%);fill-opacity:1;" d="M 70.078125 18.714844 C 68.503906 18.640625 67.15625 19.855469 67.074219 21.429688 C 66.996094 23.007813 68.21875 24.359375 69.792969 24.4375 C 71.367188 24.515625 72.714844 23.292969 72.792969 21.71875 C 72.871094 20.140625 71.648438 18.789063 70.078125 18.714844 "/>
<path style=" stroke:none;fill-rule:evenodd;fill:rgb(100%,100%,100%);fill-opacity:1;" d="M 65.636719 14.78125 C 64.355469 14.71875 63.253906 15.710938 63.1875 16.996094 C 63.125 18.277344 64.117188 19.378906 65.402344 19.445313 C 66.683594 19.507813 67.785156 18.515625 67.851563 17.230469 C 67.914063 15.945313 66.917969 14.84375 65.636719 14.78125 "/>
<path style=" stroke:none;fill-rule:evenodd;fill:rgb(100%,100%,100%);fill-opacity:1;" d="M 61.9375 11.601563 C 60.949219 11.554688 60.097656 12.316406 60.046875 13.3125 C 59.996094 14.304688 60.765625 15.152344 61.757813 15.203125 C 62.746094 15.253906 63.597656 14.480469 63.648438 13.488281 C 63.695313 12.496094 62.925781 11.648438 61.9375 11.601563 "/>
<path style=" stroke:none;fill-rule:evenodd;fill:rgb(100%,100%,100%);fill-opacity:1;" d="M 59.125 9.539063 C 58.546875 9.511719 58.046875 9.960938 58.015625 10.546875 C 57.988281 11.128906 58.4375 11.628906 59.023438 11.660156 C 59.601563 11.6875 60.101563 11.234375 60.132813 10.648438 C 60.160156 10.066406 59.707031 9.570313 59.125 9.539063 "/>
<path style=" stroke:none;fill-rule:evenodd;fill:rgb(100%,100%,100%);fill-opacity:1;" d="M 57.285156 8.351563 C 57.058594 8.34375 56.855469 8.519531 56.84375 8.753906 C 56.832031 8.984375 57.011719 9.1875 57.246094 9.199219 C 57.472656 9.210938 57.675781 9.027344 57.6875 8.792969 C 57.699219 8.558594 57.515625 8.359375 57.285156 8.351563 "/>
<path style=" stroke:none;fill-rule:evenodd;fill:rgb(100%,100%,100%);fill-opacity:1;" d="M 64.78125 29.445313 C 63.445313 29.542969 62.277344 28.535156 62.183594 27.199219 C 62.085938 25.863281 63.097656 24.695313 64.429688 24.597656 C 65.761719 24.503906 66.929688 25.511719 67.027344 26.847656 C 67.125 28.183594 66.117188 29.347656 64.78125 29.445313 "/>
<path style=" stroke:none;fill-rule:evenodd;fill:rgb(100%,100%,100%);fill-opacity:1;" d="M 60.144531 33.21875 C 59.195313 33.285156 58.367188 32.574219 58.300781 31.628906 C 58.230469 30.675781 58.945313 29.851563 59.898438 29.78125 C 60.839844 29.710938 61.667969 30.429688 61.738281 31.375 C 61.808594 32.324219 61.089844 33.152344 60.144531 33.21875 "/>
<path style=" stroke:none;fill-rule:evenodd;fill:rgb(100%,100%,100%);fill-opacity:1;" d="M 56.636719 36.332031 C 55.976563 36.378906 55.398438 35.878906 55.351563 35.222656 C 55.300781 34.558594 55.800781 33.984375 56.464844 33.933594 C 57.121094 33.886719 57.699219 34.386719 57.746094 35.046875 C 57.796875 35.707031 57.292969 36.285156 56.636719 36.332031 "/>
<path style=" stroke:none;fill-rule:evenodd;fill:rgb(100%,100%,100%);fill-opacity:1;" d="M 53.765625 38.328125 C 53.46875 38.347656 53.210938 38.128906 53.1875 37.828125 C 53.164063 37.53125 53.390625 37.269531 53.691406 37.25 C 53.984375 37.226563 54.246094 37.453125 54.265625 37.75 C 54.289063 38.046875 54.0625 38.308594 53.765625 38.328125 "/>
<path style=" stroke:none;fill-rule:evenodd;fill:rgb(13.699341%,12.199402%,12.5%);fill-opacity:1;" d="M 6.523438 84.847656 C 5.382813 84.847656 4.097656 85.132813 2.957031 86.132813 C 1.386719 87.558594 0.53125 89.414063 0.53125 91.265625 C 0.53125 93.261719 1.671875 95.257813 4.242188 95.257813 C 5.953125 95.257813 7.09375 94.402344 7.949219 93.546875 C 9.230469 92.40625 9.945313 90.554688 10.089844 88.839844 C 10.089844 86.132813 8.375 84.847656 6.523438 84.847656 Z M 6.523438 85.277344 C 7.949219 85.277344 8.804688 86.273438 8.804688 88.269531 C 8.664063 89.839844 7.949219 92.121094 6.664063 93.546875 C 5.808594 94.546875 5.097656 94.6875 4.242188 94.6875 C 2.242188 94.6875 1.671875 93.261719 1.816406 91.835938 C 1.816406 89.269531 3.242188 87.128906 4.242188 86.132813 C 4.8125 85.703125 5.523438 85.277344 6.523438 85.277344 Z M 13.367188 89.414063 C 13.511719 89.125 13.367188 88.839844 13.082031 88.839844 C 12.226563 88.839844 11.371094 89.414063 10.800781 90.269531 C 10.800781 90.269531 10.800781 90.410156 10.945313 90.410156 C 11.515625 89.984375 11.941406 89.699219 12.371094 89.699219 C 12.511719 89.699219 12.511719 89.839844 12.371094 89.984375 C 12.371094 90.269531 10.660156 94.546875 10.660156 94.832031 C 10.515625 95.117188 10.945313 95.117188 11.085938 95.117188 C 11.230469 95.117188 11.230469 95.117188 11.371094 94.972656 C 12.226563 93.261719 12.796875 92.121094 13.65625 91.125 C 14.511719 90.125 15.367188 89.414063 15.792969 89.414063 C 15.9375 89.414063 15.9375 89.554688 15.9375 89.699219 C 15.9375 89.984375 15.792969 90.554688 15.652344 90.839844 C 15.367188 91.550781 14.796875 93.121094 14.367188 93.832031 C 14.082031 94.546875 14.082031 94.6875 14.082031 94.832031 C 14.082031 94.972656 14.367188 95.117188 14.367188 95.117188 C 15.222656 95.117188 16.507813 94.402344 17.078125 93.546875 C 17.078125 93.40625 16.933594 93.261719 16.792969 93.261719 C 16.363281 93.832031 15.652344 94.261719 15.367188 94.261719 C 15.222656 94.261719 15.222656 94.117188 15.367188 93.976563 C 15.367188 93.832031 16.507813 91.410156 16.792969 90.695313 C 16.792969 90.269531 16.933594 89.839844 16.933594 89.699219 C 16.933594 89.125 16.792969 88.839844 16.078125 88.839844 C 14.9375 88.839844 13.511719 90.410156 12.511719 92.121094 L 12.371094 92.121094 Z M 21.925781 88.839844 C 21.5 88.839844 20.929688 88.984375 20.214844 89.554688 C 18.503906 90.839844 17.933594 92.691406 17.933594 93.546875 C 17.933594 94.261719 18.21875 95.117188 19.214844 95.117188 C 19.785156 95.117188 20.644531 94.972656 21.640625 93.832031 C 21.640625 93.691406 21.5 93.546875 21.355469 93.546875 C 20.785156 94.117188 20.355469 94.402344 19.785156 94.402344 C 19.359375 94.402344 19.074219 94.117188 19.074219 93.546875 C 19.074219 92.976563 19.214844 92.40625 19.214844 92.265625 C 21.5 91.550781 22.925781 90.839844 22.925781 89.699219 C 22.925781 89.269531 22.640625 88.839844 21.925781 88.839844 Z M 21.640625 89.269531 C 21.925781 89.269531 22.070313 89.414063 22.070313 89.699219 C 22.070313 89.699219 21.925781 90.269531 21.5 90.695313 C 20.929688 91.125 20.5 91.410156 19.5 91.835938 C 19.644531 91.265625 19.929688 90.695313 20.5 89.984375 C 21.070313 89.414063 21.5 89.269531 21.640625 89.269531 Z M 40.609375 88.839844 C 39.898438 88.839844 39.328125 88.984375 38.46875 89.839844 C 37.472656 90.839844 36.902344 92.265625 36.902344 93.121094 C 36.757813 94.402344 37.472656 95.117188 38.328125 95.117188 C 38.757813 95.117188 39.613281 95.117188 40.46875 94.117188 C 41.609375 92.976563 42.035156 91.550781 42.179688 90.695313 C 42.179688 89.554688 41.609375 88.839844 40.609375 88.839844 Z M 40.46875 89.269531 C 41.039063 89.269531 41.039063 89.839844 41.039063 90.269531 C 41.039063 91.125 40.324219 92.976563 39.613281 93.976563 C 39.183594 94.546875 38.757813 94.6875 38.46875 94.6875 C 38.042969 94.6875 37.898438 94.261719 37.898438 93.691406 C 37.898438 92.976563 38.46875 91.125 39.328125 89.984375 C 39.753906 89.414063 40.183594 89.269531 40.46875 89.269531 Z M 45.175781 88.839844 C 44.460938 88.839844 43.890625 89.414063 43.320313 90.269531 C 43.320313 90.410156 43.464844 90.554688 43.605469 90.554688 C 43.890625 90.125 44.320313 89.699219 44.601563 89.699219 C 44.746094 89.699219 44.890625 89.839844 44.746094 89.984375 C 44.320313 91.550781 43.464844 94.117188 43.175781 94.832031 C 43.175781 95.117188 43.605469 95.117188 43.746094 95.117188 C 43.890625 95.117188 43.890625 95.117188 44.03125 94.972656 C 44.746094 93.261719 45.601563 91.410156 46.601563 90.269531 C 46.742188 89.984375 46.886719 89.839844 47.027344 89.839844 C 47.171875 89.839844 47.3125 89.984375 47.3125 90.410156 C 47.457031 90.695313 47.742188 90.695313 47.882813 90.410156 C 48.027344 90.269531 48.167969 89.839844 48.167969 89.554688 C 48.167969 89.269531 48.167969 88.839844 47.597656 88.839844 C 47.171875 88.839844 46.886719 89.125 46.457031 89.554688 C 46.03125 90.125 45.316406 91.265625 44.890625 92.121094 L 45.460938 90.269531 C 45.601563 89.839844 45.886719 88.839844 45.175781 88.839844 Z M 51.449219 86.84375 C 52.019531 85.277344 52.164063 84.847656 52.304688 84.421875 L 52.304688 84.277344 C 51.59375 84.421875 50.59375 84.707031 50.308594 84.847656 L 50.59375 84.992188 C 50.878906 85.132813 51.023438 85.277344 50.59375 86.273438 L 48.3125 93.40625 C 48.027344 94.261719 47.882813 94.546875 47.882813 94.6875 C 47.882813 94.972656 48.027344 95.117188 48.453125 95.117188 C 49.738281 95.117188 50.734375 93.976563 51.164063 93.121094 C 51.164063 92.976563 51.023438 92.976563 50.878906 92.976563 C 50.164063 93.691406 49.453125 94.546875 49.167969 94.546875 C 49.023438 94.546875 49.023438 94.261719 49.023438 93.976563 Z M 56.867188 89.269531 C 56.726563 88.984375 56.296875 88.839844 56.015625 88.839844 C 55.300781 88.839844 54.445313 89.269531 53.304688 90.125 C 52.164063 91.265625 51.308594 92.976563 51.308594 94.117188 C 51.308594 94.6875 51.734375 95.117188 52.304688 95.117188 C 53.730469 95.117188 54.871094 93.691406 55.871094 92.265625 L 56.015625 92.40625 L 55.441406 93.832031 C 55.300781 94.261719 55.15625 94.546875 55.15625 94.6875 C 55.15625 94.972656 55.441406 95.117188 55.726563 95.117188 C 56.441406 95.117188 57.867188 93.976563 58.296875 93.121094 C 58.296875 92.976563 58.152344 92.976563 58.011719 92.976563 C 57.582031 93.546875 56.585938 94.261719 56.441406 94.261719 C 56.296875 94.261719 56.296875 94.117188 56.296875 93.976563 C 56.441406 93.40625 57.15625 91.125 58.582031 86.988281 C 59.152344 85.703125 59.292969 85.132813 59.578125 84.421875 L 59.578125 84.277344 C 58.867188 84.277344 58.011719 84.5625 57.722656 84.5625 C 57.722656 84.707031 57.722656 84.707031 57.722656 84.847656 L 58.011719 84.992188 C 58.296875 85.132813 58.152344 85.277344 57.867188 86.132813 Z M 56.015625 89.269531 C 56.441406 89.269531 56.585938 89.699219 56.441406 90.410156 C 56.15625 91.125 55.726563 92.121094 54.585938 93.261719 C 53.589844 94.261719 52.734375 94.546875 52.589844 94.546875 C 52.449219 94.546875 52.304688 94.402344 52.304688 94.261719 C 52.304688 94.117188 52.304688 93.832031 52.734375 92.835938 C 53.160156 91.835938 54.300781 90.410156 54.871094 89.984375 C 55.300781 89.554688 55.726563 89.269531 56.015625 89.269531 Z M 59.578125 93.546875 C 59.152344 93.546875 58.722656 93.976563 58.722656 94.402344 C 58.722656 94.832031 59.007813 95.117188 59.4375 95.117188 C 59.863281 95.117188 60.292969 94.832031 60.292969 94.261719 C 60.292969 93.832031 60.007813 93.546875 59.578125 93.546875 Z M 73.273438 84.847656 C 71.988281 84.847656 70.703125 85.132813 69.5625 86.132813 C 67.992188 87.558594 67.140625 89.414063 67.140625 91.265625 C 67.140625 93.261719 68.28125 95.257813 70.847656 95.257813 C 72.558594 95.257813 73.839844 94.402344 74.699219 93.546875 C 75.980469 92.40625 76.695313 90.554688 76.835938 88.839844 C 76.980469 86.132813 75.269531 84.847656 73.273438 84.847656 Z M 73.128906 85.277344 C 74.699219 85.277344 75.554688 86.273438 75.554688 88.269531 C 75.410156 89.839844 74.839844 92.121094 73.414063 93.546875 C 72.558594 94.546875 71.703125 94.6875 70.988281 94.6875 C 68.992188 94.6875 68.421875 93.261719 68.421875 91.835938 C 68.566406 89.269531 69.847656 87.128906 70.847656 86.132813 C 71.417969 85.703125 72.273438 85.277344 73.128906 85.277344 Z M 80.261719 89.414063 C 80.402344 89.125 80.117188 88.839844 79.832031 88.839844 C 79.117188 88.839844 78.121094 89.414063 77.550781 90.269531 L 77.691406 90.410156 C 78.261719 89.984375 78.832031 89.699219 79.117188 89.699219 C 79.261719 89.699219 79.261719 89.839844 79.117188 89.984375 C 79.117188 90.269531 77.550781 94.546875 77.40625 94.832031 C 77.265625 95.117188 77.691406 95.117188 77.835938 95.117188 C 77.976563 95.117188 77.976563 95.117188 78.121094 94.972656 C 78.976563 93.261719 79.6875 92.121094 80.402344 91.125 C 81.257813 90.125 82.113281 89.414063 82.542969 89.414063 C 82.683594 89.414063 82.683594 89.554688 82.683594 89.699219 C 82.683594 89.984375 82.542969 90.554688 82.398438 90.839844 C 82.113281 91.550781 81.542969 93.121094 81.257813 93.832031 C 80.832031 94.546875 80.832031 94.6875 80.832031 94.832031 C 80.832031 94.972656 81.113281 95.117188 81.257813 95.117188 C 81.972656 95.117188 83.253906 94.402344 83.824219 93.546875 C 83.824219 93.40625 83.824219 93.261719 83.539063 93.261719 C 83.113281 93.832031 82.398438 94.261719 82.113281 94.261719 C 81.972656 94.261719 82.113281 94.117188 82.113281 93.976563 C 82.113281 93.832031 83.253906 91.410156 83.539063 90.695313 C 83.683594 90.269531 83.824219 89.839844 83.824219 89.699219 C 83.824219 89.125 83.539063 88.839844 82.96875 88.839844 C 81.828125 88.839844 80.261719 90.410156 79.261719 92.121094 L 79.117188 92.121094 Z M 88.816406 88.839844 C 88.390625 88.839844 87.820313 88.984375 86.964844 89.554688 C 85.394531 90.839844 84.679688 92.691406 84.679688 93.546875 C 84.679688 94.261719 85.109375 95.117188 85.964844 95.117188 C 86.535156 95.117188 87.390625 94.972656 88.390625 93.832031 C 88.390625 93.691406 88.246094 93.546875 88.105469 93.546875 C 87.535156 94.117188 87.105469 94.402344 86.535156 94.402344 C 86.105469 94.402344 85.824219 94.117188 85.824219 93.546875 C 85.824219 92.976563 85.964844 92.40625 86.105469 92.265625 C 88.246094 91.550781 89.671875 90.839844 89.671875 89.699219 C 89.671875 89.269531 89.386719 88.839844 88.816406 88.839844 Z M 88.53125 89.269531 C 88.675781 89.269531 88.816406 89.414063 88.816406 89.699219 C 88.816406 89.699219 88.675781 90.269531 88.246094 90.695313 C 87.675781 91.125 87.246094 91.410156 86.25 91.835938 C 86.394531 91.265625 86.679688 90.695313 87.390625 89.984375 C 87.820313 89.414063 88.246094 89.269531 88.53125 89.269531 Z M 107.359375 88.839844 C 106.789063 88.839844 106.074219 88.984375 105.21875 89.839844 C 104.222656 90.839844 103.648438 92.265625 103.648438 93.121094 C 103.507813 94.402344 104.222656 95.117188 105.21875 95.117188 C 105.503906 95.117188 106.359375 95.117188 107.359375 94.117188 C 108.355469 92.976563 108.785156 91.550781 108.925781 90.695313 C 108.925781 89.554688 108.5 88.839844 107.359375 88.839844 Z M 107.214844 89.269531 C 107.785156 89.269531 107.929688 89.839844 107.929688 90.269531 C 107.785156 91.125 107.074219 92.976563 106.503906 93.976563 C 105.933594 94.546875 105.648438 94.6875 105.21875 94.6875 C 104.789063 94.6875 104.648438 94.261719 104.648438 93.691406 C 104.648438 92.976563 105.21875 91.125 106.21875 89.984375 C 106.644531 89.414063 106.929688 89.269531 107.214844 89.269531 Z M 111.921875 88.839844 C 111.210938 88.839844 110.640625 89.414063 110.066406 90.269531 C 110.066406 90.410156 110.210938 90.554688 110.355469 90.554688 C 110.640625 90.125 111.066406 89.699219 111.496094 89.699219 C 111.496094 89.699219 111.636719 89.839844 111.496094 89.984375 C 111.210938 91.550781 110.210938 94.117188 110.066406 94.832031 C 109.925781 95.117188 110.355469 95.117188 110.496094 95.117188 C 110.640625 95.117188 110.640625 95.117188 110.78125 94.972656 C 111.496094 93.261719 112.351563 91.410156 113.347656 90.269531 C 113.492188 89.984375 113.632813 89.839844 113.777344 89.839844 C 114.0625 89.839844 114.0625 89.984375 114.203125 90.410156 C 114.203125 90.695313 114.488281 90.695313 114.632813 90.410156 C 114.773438 90.269531 114.917969 89.839844 114.917969 89.554688 C 114.917969 89.269531 114.917969 88.839844 114.347656 88.839844 C 113.921875 88.839844 113.632813 89.125 113.207031 89.554688 C 112.921875 90.125 112.066406 91.265625 111.636719 92.121094 L 112.207031 90.269531 C 112.351563 89.839844 112.636719 88.839844 111.921875 88.839844 Z M 114.632813 94.832031 C 114.632813 95.117188 115.058594 95.117188 115.203125 95.117188 C 115.34375 95.117188 115.34375 95.117188 115.488281 94.972656 L 116.199219 93.121094 C 116.34375 92.550781 116.488281 92.550781 116.773438 92.40625 C 117.058594 92.40625 117.199219 92.550781 117.34375 92.976563 C 117.484375 93.40625 117.914063 94.261719 118.054688 94.546875 C 118.199219 94.972656 118.484375 95.117188 118.769531 95.117188 C 118.910156 95.117188 119.765625 94.832031 120.195313 93.691406 C 120.195313 93.691406 120.195313 93.546875 120.050781 93.546875 C 119.625 94.117188 119.339844 94.261719 119.195313 94.261719 C 119.054688 94.261719 118.910156 94.117188 118.625 93.832031 C 118.484375 93.40625 118.199219 92.835938 118.054688 92.40625 C 118.054688 92.265625 118.054688 92.121094 118.199219 92.121094 C 119.054688 91.835938 119.910156 91.410156 120.621094 90.695313 C 121.050781 90.269531 121.191406 89.839844 121.191406 89.699219 C 121.191406 89.269531 120.90625 88.839844 120.050781 88.839844 C 119.480469 88.839844 118.910156 89.125 118.484375 89.414063 C 117.914063 89.839844 117.34375 90.410156 116.914063 90.980469 L 118.484375 86.417969 C 118.910156 85.132813 119.054688 84.847656 119.195313 84.421875 L 119.054688 84.277344 C 118.484375 84.421875 117.769531 84.707031 117.199219 84.847656 C 117.199219 84.847656 117.199219 84.847656 117.34375 84.992188 L 117.628906 85.132813 C 117.769531 85.277344 117.769531 85.417969 117.484375 86.417969 Z M 120.050781 89.839844 C 120.050781 90.125 119.625 90.695313 119.054688 91.125 C 118.054688 91.835938 117.199219 92.121094 116.773438 92.121094 C 116.628906 92.121094 116.628906 91.980469 116.628906 91.835938 C 116.914063 91.410156 117.484375 90.695313 118.054688 90.269531 C 118.625 89.839844 119.195313 89.414063 119.480469 89.414063 C 119.910156 89.414063 120.050781 89.699219 120.050781 89.839844 Z M 125.042969 88.128906 C 125.042969 87.84375 124.472656 87.699219 124.1875 87.984375 L 123.761719 89.125 C 123.046875 89.414063 122.476563 89.554688 121.90625 89.984375 C 121.90625 90.125 121.90625 90.269531 122.050781 90.269531 C 122.761719 89.984375 123.046875 89.839844 123.617188 89.699219 L 120.765625 97.542969 C 120.621094 98.113281 120.480469 98.539063 119.625 98.683594 L 119.339844 98.683594 C 119.195313 98.824219 119.195313 98.96875 119.339844 98.96875 C 120.335938 98.96875 121.476563 98.96875 122.621094 98.96875 C 122.761719 98.824219 122.761719 98.683594 122.621094 98.539063 L 122.050781 98.539063 C 121.621094 98.398438 121.476563 98.253906 121.90625 97.113281 L 122.476563 95.402344 C 122.621094 95.257813 122.621094 95.117188 122.761719 95.117188 C 123.046875 95.117188 123.1875 95.117188 123.1875 95.117188 C 123.332031 95.117188 124.472656 95.117188 125.472656 94.261719 C 126.613281 93.40625 127.46875 92.121094 127.46875 90.695313 C 127.46875 89.269531 126.042969 88.984375 125.328125 88.984375 C 125.042969 88.984375 124.902344 88.984375 124.757813 88.984375 Z M 124.617188 89.554688 C 124.757813 89.554688 124.902344 89.414063 125.042969 89.414063 C 125.757813 89.414063 126.183594 89.839844 126.183594 90.554688 C 126.183594 91.265625 126.042969 92.265625 125.328125 93.40625 C 124.757813 94.402344 123.902344 94.6875 123.617188 94.6875 C 123.476563 94.6875 123.1875 94.402344 123.046875 94.261719 C 123.046875 94.261719 123.046875 94.117188 123.046875 93.976563 Z M 131.890625 86.84375 C 132.316406 85.277344 132.460938 84.847656 132.746094 84.421875 L 132.605469 84.277344 C 131.890625 84.421875 131.035156 84.707031 130.75 84.847656 C 130.605469 84.847656 130.605469 84.847656 130.75 84.847656 L 131.035156 84.992188 C 131.175781 85.132813 131.320313 85.277344 131.035156 86.273438 L 128.609375 93.40625 C 128.324219 94.261719 128.324219 94.546875 128.324219 94.6875 C 128.324219 94.972656 128.46875 95.117188 128.894531 95.117188 C 130.179688 95.117188 131.035156 93.976563 131.460938 93.121094 C 131.460938 92.976563 131.320313 92.976563 131.175781 92.976563 C 130.605469 93.691406 129.894531 94.546875 129.464844 94.546875 C 129.324219 94.546875 129.324219 94.261719 129.464844 93.976563 Z M 136.882813 89.414063 C 136.882813 89.269531 136.738281 89.125 136.597656 89.125 C 136.597656 89.125 136.453125 88.984375 136.3125 88.984375 C 135.882813 88.984375 135.453125 89.125 134.886719 89.414063 C 134.3125 89.839844 133.601563 90.410156 132.886719 91.410156 C 131.890625 92.835938 131.605469 93.976563 131.605469 94.261719 C 131.605469 94.6875 131.890625 95.117188 132.316406 95.117188 C 133.03125 95.117188 134.457031 94.117188 135.597656 92.835938 L 135.171875 94.117188 C 135.027344 94.546875 135.027344 94.6875 135.027344 94.832031 C 135.027344 94.832031 135.027344 95.117188 135.453125 95.117188 C 136.167969 95.117188 137.308594 94.261719 137.878906 93.546875 C 137.878906 93.40625 137.878906 93.261719 137.738281 93.261719 C 136.882813 93.976563 136.453125 94.261719 136.167969 94.261719 C 136.027344 94.261719 136.027344 94.261719 136.027344 93.976563 C 136.597656 92.550781 137.878906 89.269531 138.023438 88.699219 C 138.023438 88.554688 137.59375 88.414063 137.308594 88.414063 Z M 135.742188 89.554688 C 136.167969 89.554688 136.453125 89.839844 136.597656 90.125 C 136.3125 90.980469 135.742188 92.265625 134.601563 93.40625 C 133.742188 94.117188 133.171875 94.402344 133.03125 94.402344 C 132.886719 94.402344 132.886719 94.261719 132.886719 94.117188 C 132.886719 92.976563 133.742188 90.980469 134.742188 90.125 C 135.171875 89.699219 135.453125 89.554688 135.742188 89.554688 Z M 142.585938 88.839844 C 141.871094 88.839844 141.160156 89.125 140.589844 89.699219 C 139.304688 90.839844 138.734375 92.550781 138.734375 93.546875 C 138.734375 94.6875 139.164063 95.117188 139.734375 95.117188 C 140.730469 95.117188 141.730469 94.546875 142.300781 93.691406 C 142.300781 93.546875 142.300781 93.546875 142.015625 93.546875 C 141.445313 93.976563 141.019531 94.402344 140.445313 94.402344 C 140.160156 94.402344 139.734375 94.261719 139.878906 93.40625 C 139.878906 92.265625 140.304688 91.125 140.875 90.269531 C 141.304688 89.699219 141.730469 89.269531 142.015625 89.269531 C 142.585938 89.269531 142.585938 89.699219 142.585938 90.125 C 142.585938 90.269531 142.730469 90.410156 142.871094 90.410156 C 143.015625 90.410156 143.585938 90.269531 143.585938 89.699219 C 143.585938 89.269531 143.300781 88.839844 142.585938 88.839844 Z M 147.863281 88.839844 C 147.292969 88.839844 146.722656 88.984375 146.007813 89.554688 C 144.296875 90.839844 143.726563 92.691406 143.726563 93.546875 C 143.726563 94.261719 144.011719 95.117188 145.011719 95.117188 C 145.582031 95.117188 146.4375 94.972656 147.4375 93.832031 C 147.4375 93.691406 147.292969 93.546875 147.152344 93.546875 C 146.578125 94.117188 146.152344 94.402344 145.582031 94.402344 C 145.152344 94.402344 144.867188 94.117188 144.867188 93.546875 C 144.867188 92.976563 145.011719 92.40625 145.011719 92.265625 C 147.292969 91.550781 148.71875 90.839844 148.71875 89.699219 C 148.71875 89.269531 148.433594 88.839844 147.863281 88.839844 Z M 147.4375 89.269531 C 147.722656 89.269531 147.863281 89.414063 147.863281 89.699219 C 147.863281 89.699219 147.722656 90.269531 147.292969 90.695313 C 146.722656 91.125 146.296875 91.410156 145.296875 91.835938 C 145.4375 91.265625 145.726563 90.695313 146.296875 89.984375 C 146.863281 89.414063 147.292969 89.269531 147.4375 89.269531 Z M 149.859375 93.546875 C 149.433594 93.546875 149.003906 93.976563 149.003906 94.402344 C 149.003906 94.832031 149.289063 95.117188 149.574219 95.117188 C 150.144531 95.117188 150.574219 94.832031 150.574219 94.261719 C 150.574219 93.832031 150.289063 93.546875 149.859375 93.546875 "/>
<path style=" stroke:none;fill-rule:evenodd;fill:rgb(13.699341%,12.199402%,12.5%);fill-opacity:1;" d="M 35.8125 90.207031 C 34.34375 89.683594 36.089844 88.074219 36.359375 89.863281 C 36.667969 92.386719 32.675781 97.265625 31.386719 94.332031 C 28.414063 96.726563 26.386719 94.183594 29.980469 89.914063 L 27.9375 89.800781 C 27.441406 90.09375 26.878906 90.335938 27.433594 91.1875 C 27.800781 91.71875 27.21875 91.890625 26.886719 91.605469 C 26.617188 91.375 26.640625 91.007813 26.859375 90.589844 C 27.253906 89.886719 27.269531 89.015625 28.886719 89.179688 L 30.8125 89.128906 C 28.144531 92.625 28.386719 96.046875 31.296875 93.898438 C 31.191406 87.03125 36.539063 88.109375 31.980469 93.351563 C 32.121094 96.4375 36.351563 92.984375 35.8125 90.207031 Z M 31.917969 93 C 32.976563 91.734375 33.746094 90.417969 33.019531 89.886719 C 32.070313 89.667969 31.84375 91.359375 31.917969 93 "/>
<path style=" stroke:none;fill-rule:evenodd;fill:rgb(13.699341%,12.199402%,12.5%);fill-opacity:1;" d="M 102.8125 90.207031 C 101.34375 89.683594 103.089844 88.074219 103.359375 89.863281 C 103.671875 92.386719 99.675781 97.265625 98.386719 94.332031 C 95.410156 96.726563 93.386719 94.183594 96.980469 89.914063 L 94.9375 89.800781 C 94.441406 90.09375 93.878906 90.335938 94.433594 91.1875 C 94.800781 91.71875 94.21875 91.890625 93.886719 91.605469 C 93.613281 91.375 93.640625 91.007813 93.859375 90.589844 C 94.253906 89.886719 94.269531 89.015625 95.886719 89.179688 L 97.8125 89.128906 C 95.144531 92.625 95.386719 96.046875 98.296875 93.898438 C 98.191406 87.03125 103.539063 88.109375 98.980469 93.351563 C 99.121094 96.4375 103.351563 92.984375 102.8125 90.207031 Z M 98.914063 93 C 99.976563 91.734375 100.746094 90.417969 100.019531 89.886719 C 99.070313 89.667969 98.84375 91.359375 98.914063 93 "/>
</g>
</svg>
